{
    "asset" : {
        "generator" : "Khronos glTF Blender I/O v1.4.40",
        "version" : "2.0"
    },
    "scene" : 0,
    "scenes" : [
        {
            "name" : "Scene",
            "nodes" : [
                0,
                1,
                2,
                3,
                4,
                5
            ]
        }
    ],
    "nodes" : [
        {
            "name" : "Light",
            "rotation" : [
                0.16907575726509094,
                0.7558803558349609,
                -0.27217137813568115,
                0.570947527885437
            ],
            "translation" : [
                4.076245307922363,
                6.894652366638184,
                -1.0054539442062378
            ]
        },
        {
            "name" : "Camera",
            "rotation" : [
                0.483536034822464,
                0.33687159419059753,
                -0.20870360732078552,
                0.7804827094078064
            ],
            "translation" : [
                7.358891487121582,
                4.958309173583984,
                6.925790786743164
            ]
        },
        {
            "mesh" : 0,
            "name" : "blade1",
            "rotation" : [
                0,
                -0.0006085038767196238,
                0,
                1
            ],
            "scale" : [
                0.8045572638511658,
                2.1454858779907227,
                6.972828388214111
            ],
            "translation" : [
                0,
                2.7014973163604736,
                0
            ]
        },
        {
            "mesh" : 1,
            "name" : "blade2",
            "rotation" : [
                0,
                0.8819894790649414,
                0,
                0.4712691307067871
            ],
            "scale" : [
                0.8045572638511658,
                2.1454858779907227,
                6.972828388214111
            ],
            "translation" : [
                0,
                2.7014973163604736,
                0
            ]
        },
        {
            "mesh" : 2,
            "name" : "pole",
            "scale" : [
                0.6515113711357117,
                1.5642542839050293,
                0.6515113711357117
            ],
            "translation" : [
                0,
                1.8738913536071777,
                0
            ]
        },
        {
            "mesh" : 3,
            "name" : "blade3",
            "rotation" : [
                0,
                0.4487064480781555,
                0,
                0.8936792016029358
            ],
            "scale" : [
                0.8045572638511658,
                2.1454858779907227,
                6.972828388214111
            ],
            "translation" : [
                0,
                2.7014973163604736,
                0
            ]
        }
    ],
    "materials" : [
        {
            "doubleSided" : true,
            "name" : "KINZOKU",
            "pbrMetallicRoughness" : {
                "baseColorFactor" : [
                    0.17886176705360413,
                    0.17886176705360413,
                    0.17886176705360413,
                    1
                ],
                "metallicFactor" : 0.5,
                "roughnessFactor" : 0.09999999403953552
            }
        },
        {
            "doubleSided" : true,
            "name" : "black",
            "pbrMetallicRoughness" : {
                "baseColorFactor" : [
                    0.031063510105013847,
                    0.031063510105013847,
                    0.031063510105013847,
                    1
                ],
                "metallicFactor" : 0,
                "roughnessFactor" : 0.5
            }
        },
        {
            "doubleSided" : true,
            "name" : "KINZOKU.001",
            "pbrMetallicRoughness" : {
                "baseColorFactor" : [
                    0.17886176705360413,
                    0.17886176705360413,
                    0.17886176705360413,
                    1
                ],
                "metallicFactor" : 0.5,
                "roughnessFactor" : 0.09999999403953552
            }
        },
        {
            "doubleSided" : true,
            "name" : "black.001",
            "pbrMetallicRoughness" : {
                "baseColorFactor" : [
                    0.031063510105013847,
                    0.031063510105013847,
                    0.031063510105013847,
                    1
                ],
                "metallicFactor" : 0,
                "roughnessFactor" : 0.5
            }
        }
    ],
    "meshes" : [
        {
            "name" : "\u5e73\u9762",
            "primitives" : [
                {
                    "attributes" : {
                        "POSITION" : 0,
                        "NORMAL" : 1,
                        "TEXCOORD_0" : 2
                    },
                    "indices" : 3,
                    "material" : 0
                },
                {
                    "attributes" : {
                        "POSITION" : 4,
                        "NORMAL" : 5,
                        "TEXCOORD_0" : 6
                    },
                    "indices" : 7,
                    "material" : 1
                }
            ]
        },
        {
            "name" : "\u5e73\u9762.001",
            "primitives" : [
                {
                    "attributes" : {
                        "POSITION" : 8,
                        "NORMAL" : 9,
                        "TEXCOORD_0" : 10
                    },
                    "indices" : 11,
                    "material" : 0
                },
                {
                    "attributes" : {
                        "POSITION" : 12,
                        "NORMAL" : 13,
                        "TEXCOORD_0" : 14
                    },
                    "indices" : 15,
                    "material" : 1
                }
            ]
        },
        {
            "name" : "\u5186\u67f1.001",
            "primitives" : [
                {
                    "attributes" : {
                        "POSITION" : 16,
                        "NORMAL" : 17,
                        "TEXCOORD_0" : 18
                    },
                    "indices" : 19,
                    "material" : 0
                },
                {
                    "attributes" : {
                        "POSITION" : 20,
                        "NORMAL" : 21,
                        "TEXCOORD_0" : 22
                    },
                    "indices" : 23,
                    "material" : 1
                }
            ]
        },
        {
            "name" : "\u5e73\u9762.002",
            "primitives" : [
                {
                    "attributes" : {
                        "POSITION" : 24,
                        "NORMAL" : 25,
                        "TEXCOORD_0" : 26
                    },
                    "indices" : 3,
                    "material" : 2
                },
                {
                    "attributes" : {
                        "POSITION" : 27,
                        "NORMAL" : 28,
                        "TEXCOORD_0" : 29
                    },
                    "indices" : 7,
                    "material" : 3
                }
            ]
        }
    ],
    "accessors" : [
        {
            "bufferView" : 0,
            "componentType" : 5126,
            "count" : 4,
            "max" : [
                1,
                0,
                0.8503199219703674
            ],
            "min" : [
                -1,
                0,
                -0.8492072224617004
            ],
            "type" : "VEC3"
        },
        {
            "bufferView" : 1,
            "componentType" : 5126,
            "count" : 4,
            "type" : "VEC3"
        },
        {
            "bufferView" : 2,
            "componentType" : 5126,
            "count" : 4,
            "type" : "VEC2"
        },
        {
            "bufferView" : 3,
            "componentType" : 5123,
            "count" : 6,
            "type" : "SCALAR"
        },
        {
            "bufferView" : 4,
            "componentType" : 5126,
            "count" : 8,
            "max" : [
                1,
                0,
                1
            ],
            "min" : [
                -1,
                0,
                -1
            ],
            "type" : "VEC3"
        },
        {
            "bufferView" : 5,
            "componentType" : 5126,
            "count" : 8,
            "type" : "VEC3"
        },
        {
            "bufferView" : 6,
            "componentType" : 5126,
            "count" : 8,
            "type" : "VEC2"
        },
        {
            "bufferView" : 7,
            "componentType" : 5123,
            "count" : 12,
            "type" : "SCALAR"
        },
        {
            "bufferView" : 8,
            "componentType" : 5126,
            "count" : 4,
            "max" : [
                1,
                0,
                0.8790175914764404
            ],
            "min" : [
                -1,
                0,
                -0.8624827861785889
            ],
            "type" : "VEC3"
        },
        {
            "bufferView" : 9,
            "componentType" : 5126,
            "count" : 4,
            "type" : "VEC3"
        },
        {
            "bufferView" : 10,
            "componentType" : 5126,
            "count" : 4,
            "type" : "VEC2"
        },
        {
            "bufferView" : 11,
            "componentType" : 5123,
            "count" : 6,
            "type" : "SCALAR"
        },
        {
            "bufferView" : 12,
            "componentType" : 5126,
            "count" : 8,
            "max" : [
                1,
                0,
                1
            ],
            "min" : [
                -1,
                0,
                -1
            ],
            "type" : "VEC3"
        },
        {
            "bufferView" : 13,
            "componentType" : 5126,
            "count" : 8,
            "type" : "VEC3"
        },
        {
            "bufferView" : 14,
            "componentType" : 5126,
            "count" : 8,
            "type" : "VEC2"
        },
        {
            "bufferView" : 15,
            "componentType" : 5123,
            "count" : 12,
            "type" : "SCALAR"
        },
        {
            "bufferView" : 16,
            "componentType" : 5126,
            "count" : 160,
            "max" : [
                1,
                0.547994077205658,
                1
            ],
            "min" : [
                -1,
                -1,
                -1
            ],
            "type" : "VEC3"
        },
        {
            "bufferView" : 17,
            "componentType" : 5126,
            "count" : 160,
            "type" : "VEC3"
        },
        {
            "bufferView" : 18,
            "componentType" : 5126,
            "count" : 160,
            "type" : "VEC2"
        },
        {
            "bufferView" : 19,
            "componentType" : 5123,
            "count" : 282,
            "type" : "SCALAR"
        },
        {
            "bufferView" : 20,
            "componentType" : 5126,
            "count" : 288,
            "max" : [
                1,
                1,
                1
            ],
            "min" : [
                -1,
                0.547994077205658,
                -1
            ],
            "type" : "VEC3"
        },
        {
            "bufferView" : 21,
            "componentType" : 5126,
            "count" : 288,
            "type" : "VEC3"
        },
        {
            "bufferView" : 22,
            "componentType" : 5126,
            "count" : 288,
            "type" : "VEC2"
        },
        {
            "bufferView" : 23,
            "componentType" : 5123,
            "count" : 474,
            "type" : "SCALAR"
        },
        {
            "bufferView" : 24,
            "componentType" : 5126,
            "count" : 4,
            "max" : [
                1,
                0,
                0.8503199219703674
            ],
            "min" : [
                -1,
                0,
                -0.8492072224617004
            ],
            "type" : "VEC3"
        },
        {
            "bufferView" : 25,
            "componentType" : 5126,
            "count" : 4,
            "type" : "VEC3"
        },
        {
            "bufferView" : 26,
            "componentType" : 5126,
            "count" : 4,
            "type" : "VEC2"
        },
        {
            "bufferView" : 27,
            "componentType" : 5126,
            "count" : 8,
            "max" : [
                1,
                0,
                1
            ],
            "min" : [
                -1,
                0,
                -1
            ],
            "type" : "VEC3"
        },
        {
            "bufferView" : 28,
            "componentType" : 5126,
            "count" : 8,
            "type" : "VEC3"
        },
        {
            "bufferView" : 29,
            "componentType" : 5126,
            "count" : 8,
            "type" : "VEC2"
        }
    ],
    "bufferViews" : [
        {
            "buffer" : 0,
            "byteLength" : 48,
            "byteOffset" : 0
        },
        {
            "buffer" : 0,
            "byteLength" : 48,
            "byteOffset" : 48
        },
        {
            "buffer" : 0,
            "byteLength" : 32,
            "byteOffset" : 96
        },
        {
            "buffer" : 0,
            "byteLength" : 12,
            "byteOffset" : 128
        },
        {
            "buffer" : 0,
            "byteLength" : 96,
            "byteOffset" : 140
        },
        {
            "buffer" : 0,
            "byteLength" : 96,
            "byteOffset" : 236
        },
        {
            "buffer" : 0,
            "byteLength" : 64,
            "byteOffset" : 332
        },
        {
            "buffer" : 0,
            "byteLength" : 24,
            "byteOffset" : 396
        },
        {
            "buffer" : 0,
            "byteLength" : 48,
            "byteOffset" : 420
        },
        {
            "buffer" : 0,
            "byteLength" : 48,
            "byteOffset" : 468
        },
        {
            "buffer" : 0,
            "byteLength" : 32,
            "byteOffset" : 516
        },
        {
            "buffer" : 0,
            "byteLength" : 12,
            "byteOffset" : 548
        },
        {
            "buffer" : 0,
            "byteLength" : 96,
            "byteOffset" : 560
        },
        {
            "buffer" : 0,
            "byteLength" : 96,
            "byteOffset" : 656
        },
        {
            "buffer" : 0,
            "byteLength" : 64,
            "byteOffset" : 752
        },
        {
            "buffer" : 0,
            "byteLength" : 24,
            "byteOffset" : 816
        },
        {
            "buffer" : 0,
            "byteLength" : 1920,
            "byteOffset" : 840
        },
        {
            "buffer" : 0,
            "byteLength" : 1920,
            "byteOffset" : 2760
        },
        {
            "buffer" : 0,
            "byteLength" : 1280,
            "byteOffset" : 4680
        },
        {
            "buffer" : 0,
            "byteLength" : 564,
            "byteOffset" : 5960
        },
        {
            "buffer" : 0,
            "byteLength" : 3456,
            "byteOffset" : 6524
        },
        {
            "buffer" : 0,
            "byteLength" : 3456,
            "byteOffset" : 9980
        },
        {
            "buffer" : 0,
            "byteLength" : 2304,
            "byteOffset" : 13436
        },
        {
            "buffer" : 0,
            "byteLength" : 948,
            "byteOffset" : 15740
        },
        {
            "buffer" : 0,
            "byteLength" : 48,
            "byteOffset" : 16688
        },
        {
            "buffer" : 0,
            "byteLength" : 48,
            "byteOffset" : 16736
        },
        {
            "buffer" : 0,
            "byteLength" : 32,
            "byteOffset" : 16784
        },
        {
            "buffer" : 0,
            "byteLength" : 96,
            "byteOffset" : 16816
        },
        {
            "buffer" : 0,
            "byteLength" : 96,
            "byteOffset" : 16912
        },
        {
            "buffer" : 0,
            "byteLength" : 64,
            "byteOffset" : 17008
        }
    ],
    "buffers" : [
        {
            "byteLength" : 17072,
            "uri" : "bossdronep.bin"
        }
    ]
}
