{
    "asset" : {
        "generator" : "Khronos glTF Blender I/O v1.4.40",
        "version" : "2.0"
    },
    "scene" : 0,
    "scenes" : [
        {
            "name" : "Scene",
            "nodes" : [
                0,
                1,
                2,
                3,
                4,
                5,
                6
            ]
        }
    ],
    "nodes" : [
        {
            "name" : "Light",
            "rotation" : [
                0.16907575726509094,
                0.7558803558349609,
                -0.27217137813568115,
                0.570947527885437
            ],
            "translation" : [
                4.076245307922363,
                3.920595169067383,
                -1.0054539442062378
            ]
        },
        {
            "name" : "Camera",
            "rotation" : [
                0.483536034822464,
                0.33687159419059753,
                -0.20870360732078552,
                0.7804827094078064
            ],
            "translation" : [
                7.358891487121582,
                4.958309173583984,
                6.925790786743164
            ]
        },
        {
            "mesh" : 0,
            "name" : "taser",
            "rotation" : [
                0,
                1,
                0,
                7.549790126404332e-08
            ],
            "scale" : [
                0.07330475747585297,
                0.3680379390716553,
                1.8401894569396973
            ],
            "translation" : [
                0,
                -3.956845760345459,
                -1.566153883934021
            ]
        },
        {
            "mesh" : 1,
            "name" : "magazine",
            "rotation" : [
                0,
                1,
                0,
                7.549790126404332e-08
            ],
            "scale" : [
                0.6550639867782593,
                0.4478427469730377,
                1.3435282707214355
            ],
            "translation" : [
                0,
                -3.9660418033599854,
                1.235046625137329
            ]
        },
        {
            "mesh" : 2,
            "name" : "hardpoint",
            "rotation" : [
                0,
                1,
                0,
                7.549790126404332e-08
            ],
            "scale" : [
                1.3435282707214355,
                2.239213705062866,
                1.3435282707214355
            ],
            "translation" : [
                0,
                -1.3416318893432617,
                1.235046625137329
            ]
        },
        {
            "mesh" : 3,
            "name" : "magazine2",
            "rotation" : [
                0,
                1,
                0,
                7.549790126404332e-08
            ],
            "scale" : [
                0.8956854939460754,
                0.4478427469730377,
                1.3435282707214355
            ],
            "translation" : [
                0,
                -4.839137077331543,
                1.235046625137329
            ]
        },
        {
            "mesh" : 4,
            "name" : "taser2",
            "rotation" : [
                0,
                1,
                0,
                7.549790126404332e-08
            ],
            "scale" : [
                0.08920005708932877,
                0.4478427469730377,
                2.239213705062866
            ],
            "translation" : [
                0,
                -4.810429096221924,
                -1.566153883934021
            ]
        }
    ],
    "materials" : [
        {
            "doubleSided" : true,
            "name" : "KINZOKU",
            "pbrMetallicRoughness" : {
                "baseColorFactor" : [
                    0.17886176705360413,
                    0.17886176705360413,
                    0.17886176705360413,
                    1
                ],
                "metallicFactor" : 0.5,
                "roughnessFactor" : 0.09999999403953552
            }
        },
        {
            "doubleSided" : true,
            "name" : "\u30de\u30c6\u30ea\u30a2\u30eb.001",
            "pbrMetallicRoughness" : {
                "baseColorTexture" : {
                    "index" : 0,
                    "texCoord" : 0
                },
                "metallicFactor" : 0,
                "roughnessFactor" : 0.5
            }
        },
        {
            "doubleSided" : true,
            "name" : "\u30de\u30c6\u30ea\u30a2\u30eb.002",
            "pbrMetallicRoughness" : {
                "baseColorTexture" : {
                    "index" : 1,
                    "texCoord" : 0
                },
                "metallicFactor" : 0,
                "roughnessFactor" : 0.5
            }
        },
        {
            "doubleSided" : true,
            "name" : "KINZOKU.001",
            "pbrMetallicRoughness" : {
                "baseColorFactor" : [
                    0.17886176705360413,
                    0.17886176705360413,
                    0.17886176705360413,
                    1
                ],
                "metallicFactor" : 0.5,
                "roughnessFactor" : 0.09999999403953552
            }
        }
    ],
    "meshes" : [
        {
            "name" : "\u7acb\u65b9\u4f53.002",
            "primitives" : [
                {
                    "attributes" : {
                        "POSITION" : 0,
                        "NORMAL" : 1,
                        "TEXCOORD_0" : 2
                    },
                    "indices" : 3,
                    "material" : 0
                }
            ]
        },
        {
            "name" : "\u7acb\u65b9\u4f53.001",
            "primitives" : [
                {
                    "attributes" : {
                        "POSITION" : 4,
                        "NORMAL" : 5,
                        "TEXCOORD_0" : 6
                    },
                    "indices" : 7,
                    "material" : 1
                }
            ]
        },
        {
            "name" : "\u5186\u67f1.003",
            "primitives" : [
                {
                    "attributes" : {
                        "POSITION" : 8,
                        "NORMAL" : 9,
                        "TEXCOORD_0" : 10
                    },
                    "indices" : 11,
                    "material" : 0
                }
            ]
        },
        {
            "name" : "\u7acb\u65b9\u4f53.004",
            "primitives" : [
                {
                    "attributes" : {
                        "POSITION" : 12,
                        "NORMAL" : 13,
                        "TEXCOORD_0" : 14
                    },
                    "indices" : 7,
                    "material" : 2
                }
            ]
        },
        {
            "name" : "\u7acb\u65b9\u4f53.003",
            "primitives" : [
                {
                    "attributes" : {
                        "POSITION" : 15,
                        "NORMAL" : 16,
                        "TEXCOORD_0" : 17
                    },
                    "indices" : 3,
                    "material" : 3
                }
            ]
        }
    ],
    "textures" : [
        {
            "sampler" : 0,
            "source" : 0
        },
        {
            "sampler" : 0,
            "source" : 0
        }
    ],
    "images" : [
        {
            "mimeType" : "image/png",
            "name" : "images",
            "uri" : "images.png"
        }
    ],
    "accessors" : [
        {
            "bufferView" : 0,
            "componentType" : 5126,
            "count" : 78,
            "max" : [
                6.3285932540893555,
                1.0158030986785889,
                1
            ],
            "min" : [
                -6.3285932540893555,
                -0.9841968417167664,
                -1
            ],
            "type" : "VEC3"
        },
        {
            "bufferView" : 1,
            "componentType" : 5126,
            "count" : 78,
            "type" : "VEC3"
        },
        {
            "bufferView" : 2,
            "componentType" : 5126,
            "count" : 78,
            "type" : "VEC2"
        },
        {
            "bufferView" : 3,
            "componentType" : 5123,
            "count" : 120,
            "type" : "SCALAR"
        },
        {
            "bufferView" : 4,
            "componentType" : 5126,
            "count" : 24,
            "max" : [
                1,
                1,
                1
            ],
            "min" : [
                -1,
                -1,
                -1
            ],
            "type" : "VEC3"
        },
        {
            "bufferView" : 5,
            "componentType" : 5126,
            "count" : 24,
            "type" : "VEC3"
        },
        {
            "bufferView" : 6,
            "componentType" : 5126,
            "count" : 24,
            "type" : "VEC2"
        },
        {
            "bufferView" : 7,
            "componentType" : 5123,
            "count" : 36,
            "type" : "SCALAR"
        },
        {
            "bufferView" : 8,
            "componentType" : 5126,
            "count" : 448,
            "max" : [
                1,
                1,
                1
            ],
            "min" : [
                -1,
                -1,
                -1
            ],
            "type" : "VEC3"
        },
        {
            "bufferView" : 9,
            "componentType" : 5126,
            "count" : 448,
            "type" : "VEC3"
        },
        {
            "bufferView" : 10,
            "componentType" : 5126,
            "count" : 448,
            "type" : "VEC2"
        },
        {
            "bufferView" : 11,
            "componentType" : 5123,
            "count" : 756,
            "type" : "SCALAR"
        },
        {
            "bufferView" : 12,
            "componentType" : 5126,
            "count" : 24,
            "max" : [
                1,
                1,
                1
            ],
            "min" : [
                -1,
                -1,
                -1
            ],
            "type" : "VEC3"
        },
        {
            "bufferView" : 13,
            "componentType" : 5126,
            "count" : 24,
            "type" : "VEC3"
        },
        {
            "bufferView" : 14,
            "componentType" : 5126,
            "count" : 24,
            "type" : "VEC2"
        },
        {
            "bufferView" : 15,
            "componentType" : 5126,
            "count" : 78,
            "max" : [
                6.3285932540893555,
                1.0158030986785889,
                1
            ],
            "min" : [
                -6.3285932540893555,
                -0.9841968417167664,
                -1
            ],
            "type" : "VEC3"
        },
        {
            "bufferView" : 16,
            "componentType" : 5126,
            "count" : 78,
            "type" : "VEC3"
        },
        {
            "bufferView" : 17,
            "componentType" : 5126,
            "count" : 78,
            "type" : "VEC2"
        }
    ],
    "bufferViews" : [
        {
            "buffer" : 0,
            "byteLength" : 936,
            "byteOffset" : 0
        },
        {
            "buffer" : 0,
            "byteLength" : 936,
            "byteOffset" : 936
        },
        {
            "buffer" : 0,
            "byteLength" : 624,
            "byteOffset" : 1872
        },
        {
            "buffer" : 0,
            "byteLength" : 240,
            "byteOffset" : 2496
        },
        {
            "buffer" : 0,
            "byteLength" : 288,
            "byteOffset" : 2736
        },
        {
            "buffer" : 0,
            "byteLength" : 288,
            "byteOffset" : 3024
        },
        {
            "buffer" : 0,
            "byteLength" : 192,
            "byteOffset" : 3312
        },
        {
            "buffer" : 0,
            "byteLength" : 72,
            "byteOffset" : 3504
        },
        {
            "buffer" : 0,
            "byteLength" : 5376,
            "byteOffset" : 3576
        },
        {
            "buffer" : 0,
            "byteLength" : 5376,
            "byteOffset" : 8952
        },
        {
            "buffer" : 0,
            "byteLength" : 3584,
            "byteOffset" : 14328
        },
        {
            "buffer" : 0,
            "byteLength" : 1512,
            "byteOffset" : 17912
        },
        {
            "buffer" : 0,
            "byteLength" : 288,
            "byteOffset" : 19424
        },
        {
            "buffer" : 0,
            "byteLength" : 288,
            "byteOffset" : 19712
        },
        {
            "buffer" : 0,
            "byteLength" : 192,
            "byteOffset" : 20000
        },
        {
            "buffer" : 0,
            "byteLength" : 936,
            "byteOffset" : 20192
        },
        {
            "buffer" : 0,
            "byteLength" : 936,
            "byteOffset" : 21128
        },
        {
            "buffer" : 0,
            "byteLength" : 624,
            "byteOffset" : 22064
        }
    ],
    "samplers" : [
        {
            "magFilter" : 9729,
            "minFilter" : 9986
        }
    ],
    "buffers" : [
        {
            "byteLength" : 22688,
            "uri" : "bossdronet.bin"
        }
    ]
}
