{
    "asset" : {
        "generator" : "Khronos glTF Blender I/O v1.2.75",
        "version" : "2.0"
    },
    "scene" : 0,
    "scenes" : [
        {
            "name" : "Scene",
            "nodes" : [
                0,
                1,
                2,
                3
            ]
        }
    ],
    "nodes" : [
        {
            "name" : "Light",
            "rotation" : [
                -0.07181087136268616,
                0.9386593699455261,
                -0.3122612237930298,
                -0.1274939328432083
            ],
            "scale" : [
                1.2539349794387817,
                1.092382550239563,
                1.1395740509033203
            ],
            "translation" : [
                0.2634624242782593,
                5.246843338012695,
                -4.027880668640137
            ]
        },
        {
            "name" : "Camera",
            "rotation" : [
                0.567847490310669,
                0.24241085350513458,
                -0.17284896969795227,
                0.7674043774604797
            ],
            "translation" : [
                17.922222137451172,
                10.349167823791504,
                25.73981475830078
            ]
        },
        {
            "mesh" : 0,
            "name" : "hand",
            "scale" : [
                0.8133646845817566,
                0.8133646845817566,
                0.8133646845817566
            ],
            "translation" : [
                0.13831624388694763,
                0.139139324426651,
                0.5503820180892944
            ]
        },
        {
            "mesh" : 1,
            "name" : "arm",
            "translation" : [
                0.12118817865848541,
                -0.8124212026596069,
                0.5101956725120544
            ]
        }
    ],
    "materials" : [
        {
            "doubleSided" : true,
            "emissiveFactor" : [
                0,
                0,
                0
            ],
            "name" : "black",
            "pbrMetallicRoughness" : {
                "baseColorFactor" : [
                    0,
                    0,
                    0,
                    1
                ],
                "metallicFactor" : 0,
                "roughnessFactor" : 0.4000000059604645
            }
        },
        {
            "doubleSided" : true,
            "emissiveFactor" : [
                0,
                0,
                0
            ],
            "name" : "\u30de\u30c6\u30ea\u30a2\u30eb",
            "pbrMetallicRoughness" : {
                "baseColorTexture" : {
                    "index" : 0,
                    "texCoord" : 0
                },
                "metallicFactor" : 0,
                "roughnessFactor" : 0.5
            }
        }
    ],
    "meshes" : [
        {
            "name" : "\u7403.003",
            "primitives" : [
                {
                    "attributes" : {
                        "POSITION" : 0,
                        "NORMAL" : 1,
                        "TEXCOORD_0" : 2
                    },
                    "indices" : 3,
                    "material" : 0
                }
            ]
        },
        {
            "name" : "\u5186\u67f1.004",
            "primitives" : [
                {
                    "attributes" : {
                        "POSITION" : 4,
                        "NORMAL" : 5,
                        "TEXCOORD_0" : 6
                    },
                    "indices" : 7,
                    "material" : 0
                },
                {
                    "attributes" : {
                        "POSITION" : 8,
                        "NORMAL" : 9,
                        "TEXCOORD_0" : 10
                    },
                    "indices" : 11,
                    "material" : 1
                }
            ]
        }
    ],
    "textures" : [
        {
            "source" : 0
        }
    ],
    "images" : [
        {
            "mimeType" : "image/jpeg",
            "name" : "ude",
            "uri" : "ude.jpg"
        }
    ],
    "accessors" : [
        {
            "bufferView" : 0,
            "componentType" : 5126,
            "count" : 124,
            "max" : [
                -1.9732202291488647,
                2.829317092895508,
                3.314370632171631
            ],
            "min" : [
                -4.918861389160156,
                -0.1447363793849945,
                -0.16591361165046692
            ],
            "type" : "VEC3"
        },
        {
            "bufferView" : 1,
            "componentType" : 5126,
            "count" : 124,
            "type" : "VEC3"
        },
        {
            "bufferView" : 2,
            "componentType" : 5126,
            "count" : 124,
            "type" : "VEC2"
        },
        {
            "bufferView" : 3,
            "componentType" : 5123,
            "count" : 540,
            "type" : "SCALAR"
        },
        {
            "bufferView" : 4,
            "componentType" : 5126,
            "count" : 102,
            "max" : [
                -1.408380150794983,
                2.519651174545288,
                2.034574031829834
            ],
            "min" : [
                -3.080620288848877,
                1.0340497493743896,
                0.0037550628185272217
            ],
            "type" : "VEC3"
        },
        {
            "bufferView" : 5,
            "componentType" : 5126,
            "count" : 102,
            "type" : "VEC3"
        },
        {
            "bufferView" : 6,
            "componentType" : 5126,
            "count" : 102,
            "type" : "VEC2"
        },
        {
            "bufferView" : 7,
            "componentType" : 5123,
            "count" : 348,
            "type" : "SCALAR"
        },
        {
            "bufferView" : 8,
            "componentType" : 5126,
            "count" : 154,
            "max" : [
                0.20199541747570038,
                2.3617238998413086,
                1.8444206714630127
            ],
            "min" : [
                -2.8241419792175293,
                0.5189394950866699,
                -0.9048117995262146
            ],
            "type" : "VEC3"
        },
        {
            "bufferView" : 9,
            "componentType" : 5126,
            "count" : 154,
            "type" : "VEC3"
        },
        {
            "bufferView" : 10,
            "componentType" : 5126,
            "count" : 154,
            "type" : "VEC2"
        },
        {
            "bufferView" : 11,
            "componentType" : 5123,
            "count" : 636,
            "type" : "SCALAR"
        }
    ],
    "bufferViews" : [
        {
            "buffer" : 0,
            "byteLength" : 1488,
            "byteOffset" : 0
        },
        {
            "buffer" : 0,
            "byteLength" : 1488,
            "byteOffset" : 1488
        },
        {
            "buffer" : 0,
            "byteLength" : 992,
            "byteOffset" : 2976
        },
        {
            "buffer" : 0,
            "byteLength" : 1080,
            "byteOffset" : 3968
        },
        {
            "buffer" : 0,
            "byteLength" : 1224,
            "byteOffset" : 5048
        },
        {
            "buffer" : 0,
            "byteLength" : 1224,
            "byteOffset" : 6272
        },
        {
            "buffer" : 0,
            "byteLength" : 816,
            "byteOffset" : 7496
        },
        {
            "buffer" : 0,
            "byteLength" : 696,
            "byteOffset" : 8312
        },
        {
            "buffer" : 0,
            "byteLength" : 1848,
            "byteOffset" : 9008
        },
        {
            "buffer" : 0,
            "byteLength" : 1848,
            "byteOffset" : 10856
        },
        {
            "buffer" : 0,
            "byteLength" : 1232,
            "byteOffset" : 12704
        },
        {
            "buffer" : 0,
            "byteLength" : 1272,
            "byteOffset" : 13936
        }
    ],
    "buffers" : [
        {
            "byteLength" : 15208,
            "uri" : "arms.bin"
        }
    ]
}
