{
    "asset" : {
        "generator" : "Khronos glTF Blender I/O v1.2.75",
        "version" : "2.0"
    },
    "scene" : 0,
    "scenes" : [
        {
            "name" : "Scene",
            "nodes" : [
                0,
                1,
                2,
                3,
                4
            ]
        }
    ],
    "nodes" : [
        {
            "mesh" : 0,
            "name" : "bat",
            "rotation" : [
                -0.09477932751178741,
                0.1421060711145401,
                0.4980628490447998,
                0.8501506447792053
            ],
            "scale" : [
                0.5,
                0.5,
                0.5
            ],
            "translation" : [
                -0.8601120710372925,
                1.9937307834625244,
                0.8199347853660583
            ]
        },
        {
            "name" : "Light",
            "rotation" : [
                -0.317823588848114,
                0.2050943523645401,
                -0.040645454078912735,
                -0.9248093962669373
            ],
            "scale" : [
                1.2539349794387817,
                1.092382550239563,
                1.1395740509033203
            ],
            "translation" : [
                -3.6523196697235107,
                5.246843338012695,
                1.4652941226959229
            ]
        },
        {
            "name" : "Camera",
            "rotation" : [
                0.567847490310669,
                0.24241085350513458,
                -0.17284896969795227,
                0.7674043774604797
            ],
            "translation" : [
                17.922222137451172,
                10.349167823791504,
                25.73981475830078
            ]
        },
        {
            "mesh" : 1,
            "name" : "hand",
            "rotation" : [
                0,
                0.4438619315624237,
                0,
                0.8960951566696167
            ],
            "scale" : [
                0.8133646845817566,
                0.8133646845817566,
                0.8133646845817566
            ],
            "translation" : [
                0.9594224691390991,
                0.1391392946243286,
                -2.1654045581817627
            ]
        },
        {
            "mesh" : 2,
            "name" : "arm",
            "rotation" : [
                0,
                0.4438619315624237,
                0,
                0.8960951566696167
            ],
            "translation" : [
                0.9170758724212646,
                -0.8124212026596069,
                -2.176131248474121
            ]
        }
    ],
    "materials" : [
        {
            "doubleSided" : true,
            "emissiveFactor" : [
                0,
                0,
                0
            ],
            "name" : "grip",
            "pbrMetallicRoughness" : {
                "baseColorTexture" : {
                    "index" : 0,
                    "texCoord" : 0
                },
                "metallicFactor" : 0,
                "roughnessFactor" : 0.5083333253860474
            }
        },
        {
            "doubleSided" : true,
            "emissiveFactor" : [
                0,
                0,
                0
            ],
            "name" : "wooden",
            "pbrMetallicRoughness" : {
                "baseColorTexture" : {
                    "index" : 1,
                    "texCoord" : 0
                },
                "metallicFactor" : 0,
                "roughnessFactor" : 0.5
            }
        },
        {
            "doubleSided" : true,
            "emissiveFactor" : [
                0,
                0,
                0
            ],
            "name" : "black",
            "pbrMetallicRoughness" : {
                "baseColorFactor" : [
                    0,
                    0,
                    0,
                    1
                ],
                "metallicFactor" : 0,
                "roughnessFactor" : 0.4000000059604645
            }
        },
        {
            "doubleSided" : true,
            "emissiveFactor" : [
                0,
                0,
                0
            ],
            "name" : "\u30de\u30c6\u30ea\u30a2\u30eb",
            "pbrMetallicRoughness" : {
                "baseColorTexture" : {
                    "index" : 2,
                    "texCoord" : 0
                },
                "metallicFactor" : 0,
                "roughnessFactor" : 0.5
            }
        }
    ],
    "meshes" : [
        {
            "name" : "\u5186\u67f1",
            "primitives" : [
                {
                    "attributes" : {
                        "POSITION" : 0,
                        "NORMAL" : 1,
                        "TEXCOORD_0" : 2
                    },
                    "indices" : 3,
                    "material" : 0
                },
                {
                    "attributes" : {
                        "POSITION" : 4,
                        "NORMAL" : 5,
                        "TEXCOORD_0" : 6
                    },
                    "indices" : 7,
                    "material" : 1
                }
            ]
        },
        {
            "name" : "\u7403.003",
            "primitives" : [
                {
                    "attributes" : {
                        "POSITION" : 8,
                        "NORMAL" : 9,
                        "TEXCOORD_0" : 10
                    },
                    "indices" : 11,
                    "material" : 2
                }
            ]
        },
        {
            "name" : "\u5186\u67f1.004",
            "primitives" : [
                {
                    "attributes" : {
                        "POSITION" : 12,
                        "NORMAL" : 13,
                        "TEXCOORD_0" : 14
                    },
                    "indices" : 15,
                    "material" : 2
                },
                {
                    "attributes" : {
                        "POSITION" : 16,
                        "NORMAL" : 17,
                        "TEXCOORD_0" : 18
                    },
                    "indices" : 19,
                    "material" : 3
                }
            ]
        }
    ],
    "textures" : [
        {
            "source" : 0
        },
        {
            "source" : 1
        },
        {
            "source" : 2
        }
    ],
    "images" : [
        {
            "mimeType" : "image/jpeg",
            "name" : "DSC_11000",
            "uri" : "DSC_11000.jpg"
        },
        {
            "mimeType" : "image/jpeg",
            "name" : "DSC_11002",
            "uri" : "DSC_11002.jpg"
        },
        {
            "mimeType" : "image/jpeg",
            "name" : "ude",
            "uri" : "ude.jpg"
        }
    ],
    "accessors" : [
        {
            "bufferView" : 0,
            "componentType" : 5126,
            "count" : 32,
            "max" : [
                0.5303592681884766,
                -1.6383295059204102,
                0.530359148979187
            ],
            "min" : [
                -0.5303592681884766,
                -5.7058210372924805,
                -0.5303596258163452
            ],
            "type" : "VEC3"
        },
        {
            "bufferView" : 1,
            "componentType" : 5126,
            "count" : 32,
            "type" : "VEC3"
        },
        {
            "bufferView" : 2,
            "componentType" : 5126,
            "count" : 32,
            "type" : "VEC2"
        },
        {
            "bufferView" : 3,
            "componentType" : 5123,
            "count" : 96,
            "type" : "SCALAR"
        },
        {
            "bufferView" : 4,
            "componentType" : 5126,
            "count" : 128,
            "max" : [
                0.9807853698730469,
                6.122774600982666,
                0.9807853698730469
            ],
            "min" : [
                -0.9807853698730469,
                -6.38640022277832,
                -0.980785608291626
            ],
            "type" : "VEC3"
        },
        {
            "bufferView" : 5,
            "componentType" : 5126,
            "count" : 128,
            "type" : "VEC3"
        },
        {
            "bufferView" : 6,
            "componentType" : 5126,
            "count" : 128,
            "type" : "VEC2"
        },
        {
            "bufferView" : 7,
            "componentType" : 5123,
            "count" : 468,
            "type" : "SCALAR"
        },
        {
            "bufferView" : 8,
            "componentType" : 5126,
            "count" : 124,
            "max" : [
                -1.9732202291488647,
                2.829317092895508,
                3.314370632171631
            ],
            "min" : [
                -4.918861389160156,
                -0.1447363793849945,
                -0.16591361165046692
            ],
            "type" : "VEC3"
        },
        {
            "bufferView" : 9,
            "componentType" : 5126,
            "count" : 124,
            "type" : "VEC3"
        },
        {
            "bufferView" : 10,
            "componentType" : 5126,
            "count" : 124,
            "type" : "VEC2"
        },
        {
            "bufferView" : 11,
            "componentType" : 5123,
            "count" : 540,
            "type" : "SCALAR"
        },
        {
            "bufferView" : 12,
            "componentType" : 5126,
            "count" : 102,
            "max" : [
                -1.408380150794983,
                2.519651174545288,
                2.034574031829834
            ],
            "min" : [
                -3.080620288848877,
                1.0340497493743896,
                0.0037550628185272217
            ],
            "type" : "VEC3"
        },
        {
            "bufferView" : 13,
            "componentType" : 5126,
            "count" : 102,
            "type" : "VEC3"
        },
        {
            "bufferView" : 14,
            "componentType" : 5126,
            "count" : 102,
            "type" : "VEC2"
        },
        {
            "bufferView" : 15,
            "componentType" : 5123,
            "count" : 348,
            "type" : "SCALAR"
        },
        {
            "bufferView" : 16,
            "componentType" : 5126,
            "count" : 154,
            "max" : [
                0.20199541747570038,
                2.3617238998413086,
                1.8444206714630127
            ],
            "min" : [
                -2.8241419792175293,
                0.5189394950866699,
                -0.9048117995262146
            ],
            "type" : "VEC3"
        },
        {
            "bufferView" : 17,
            "componentType" : 5126,
            "count" : 154,
            "type" : "VEC3"
        },
        {
            "bufferView" : 18,
            "componentType" : 5126,
            "count" : 154,
            "type" : "VEC2"
        },
        {
            "bufferView" : 19,
            "componentType" : 5123,
            "count" : 636,
            "type" : "SCALAR"
        }
    ],
    "bufferViews" : [
        {
            "buffer" : 0,
            "byteLength" : 384,
            "byteOffset" : 0
        },
        {
            "buffer" : 0,
            "byteLength" : 384,
            "byteOffset" : 384
        },
        {
            "buffer" : 0,
            "byteLength" : 256,
            "byteOffset" : 768
        },
        {
            "buffer" : 0,
            "byteLength" : 192,
            "byteOffset" : 1024
        },
        {
            "buffer" : 0,
            "byteLength" : 1536,
            "byteOffset" : 1216
        },
        {
            "buffer" : 0,
            "byteLength" : 1536,
            "byteOffset" : 2752
        },
        {
            "buffer" : 0,
            "byteLength" : 1024,
            "byteOffset" : 4288
        },
        {
            "buffer" : 0,
            "byteLength" : 936,
            "byteOffset" : 5312
        },
        {
            "buffer" : 0,
            "byteLength" : 1488,
            "byteOffset" : 6248
        },
        {
            "buffer" : 0,
            "byteLength" : 1488,
            "byteOffset" : 7736
        },
        {
            "buffer" : 0,
            "byteLength" : 992,
            "byteOffset" : 9224
        },
        {
            "buffer" : 0,
            "byteLength" : 1080,
            "byteOffset" : 10216
        },
        {
            "buffer" : 0,
            "byteLength" : 1224,
            "byteOffset" : 11296
        },
        {
            "buffer" : 0,
            "byteLength" : 1224,
            "byteOffset" : 12520
        },
        {
            "buffer" : 0,
            "byteLength" : 816,
            "byteOffset" : 13744
        },
        {
            "buffer" : 0,
            "byteLength" : 696,
            "byteOffset" : 14560
        },
        {
            "buffer" : 0,
            "byteLength" : 1848,
            "byteOffset" : 15256
        },
        {
            "buffer" : 0,
            "byteLength" : 1848,
            "byteOffset" : 17104
        },
        {
            "buffer" : 0,
            "byteLength" : 1232,
            "byteOffset" : 18952
        },
        {
            "buffer" : 0,
            "byteLength" : 1272,
            "byteOffset" : 20184
        }
    ],
    "buffers" : [
        {
            "byteLength" : 21456,
            "uri" : "batarms.bin"
        }
    ]
}
