{
    "asset" : {
        "generator" : "Khronos glTF Blender I/O v1.2.75",
        "version" : "2.0"
    },
    "scene" : 0,
    "scenes" : [
        {
            "name" : "Scene",
            "nodes" : [
                0,
                1,
                2,
                3,
                4
            ]
        }
    ],
    "nodes" : [
        {
            "name" : "Light",
            "rotation" : [
                0.2745381295681,
                -0.5601873993873596,
                0.16520501673221588,
                0.7638888359069824
            ],
            "scale" : [
                1.2539349794387817,
                1.092382550239563,
                1.1395740509033203
            ],
            "translation" : [
                6.086426258087158,
                6.112792491912842,
                -4.946596145629883
            ]
        },
        {
            "name" : "Camera",
            "rotation" : [
                0.329243004322052,
                0.6742710471153259,
                -0.4938892126083374,
                0.43935295939445496
            ],
            "translation" : [
                17.922222137451172,
                9.10516357421875,
                -7.877209186553955
            ]
        },
        {
            "mesh" : 0,
            "name" : "head",
            "rotation" : [
                0,
                -0.9659528136253357,
                0,
                -0.2587184011936188
            ],
            "scale" : [
                1.7023624181747437,
                1.242254376411438,
                1.4558426141738892
            ],
            "translation" : [
                0.08300969004631042,
                3.670581340789795,
                -0.06933486461639404
            ]
        },
        {
            "mesh" : 1,
            "name" : "ear",
            "rotation" : [
                0.35361725091934204,
                -0.6123355627059937,
                0.6123355627059937,
                0.35361725091934204
            ],
            "scale" : [
                0.5823371410369873,
                0.17023620009422302,
                0.49690183997154236
            ],
            "translation" : [
                0.049690693616867065,
                3.4403908252716064,
                -0.02453303337097168
            ]
        },
        {
            "mesh" : 2,
            "name" : "helmet",
            "rotation" : [
                0,
                -0.9659528136253357,
                0,
                -0.2587184011936188
            ],
            "scale" : [
                1.6172438859939575,
                1.3664798736572266,
                1.6014267206192017
            ],
            "translation" : [
                0.060605376958847046,
                3.787883758544922,
                -0.08226311206817627
            ]
        }
    ],
    "materials" : [
        {
            "doubleSided" : true,
            "emissiveFactor" : [
                0,
                0,
                0
            ],
            "name" : "black",
            "pbrMetallicRoughness" : {
                "baseColorFactor" : [
                    0,
                    0,
                    0,
                    1
                ],
                "metallicFactor" : 0,
                "roughnessFactor" : 0.4000000059604645
            }
        },
        {
            "doubleSided" : true,
            "emissiveFactor" : [
                0,
                0,
                0
            ],
            "name" : "white",
            "pbrMetallicRoughness" : {
                "baseColorFactor" : [
                    1,
                    0.556543231010437,
                    0.36850202083587646,
                    1
                ],
                "metallicFactor" : 0,
                "roughnessFactor" : 0.5
            }
        },
        {
            "doubleSided" : true,
            "emissiveFactor" : [
                0,
                0,
                0
            ],
            "name" : "metal",
            "pbrMetallicRoughness" : {
                "metallicFactor" : 0.800000011920929,
                "roughnessFactor" : 0.20000000298023224
            }
        },
        {
            "doubleSided" : true,
            "emissiveFactor" : [
                0,
                0,
                0
            ],
            "name" : "goggle",
            "pbrMetallicRoughness" : {
                "baseColorFactor" : [
                    0,
                    0,
                    0,
                    1
                ],
                "metallicFactor" : 0,
                "roughnessFactor" : 0
            }
        }
    ],
    "meshes" : [
        {
            "name" : "\u7403.001",
            "primitives" : [
                {
                    "attributes" : {
                        "POSITION" : 0,
                        "NORMAL" : 1,
                        "TEXCOORD_0" : 2
                    },
                    "indices" : 3,
                    "material" : 0
                },
                {
                    "attributes" : {
                        "POSITION" : 4,
                        "NORMAL" : 5,
                        "TEXCOORD_0" : 6
                    },
                    "indices" : 7,
                    "material" : 1
                }
            ]
        },
        {
            "name" : "\u5186\u67f1.001",
            "primitives" : [
                {
                    "attributes" : {
                        "POSITION" : 8,
                        "NORMAL" : 9,
                        "TEXCOORD_0" : 10
                    },
                    "indices" : 11,
                    "material" : 2
                }
            ]
        },
        {
            "name" : "\u5186\u67f1.002",
            "primitives" : [
                {
                    "attributes" : {
                        "POSITION" : 12,
                        "NORMAL" : 13,
                        "TEXCOORD_0" : 14
                    },
                    "indices" : 15,
                    "material" : 2
                },
                {
                    "attributes" : {
                        "POSITION" : 16,
                        "NORMAL" : 17,
                        "TEXCOORD_0" : 18
                    },
                    "indices" : 19,
                    "material" : 3
                }
            ]
        }
    ],
    "accessors" : [
        {
            "bufferView" : 0,
            "componentType" : 5126,
            "count" : 182,
            "max" : [
                0.9978369474411011,
                0.8861668109893799,
                0.9244521260261536
            ],
            "min" : [
                -0.9550077319145203,
                -1.8637502193450928,
                -0.9981808662414551
            ],
            "type" : "VEC3"
        },
        {
            "bufferView" : 1,
            "componentType" : 5126,
            "count" : 182,
            "type" : "VEC3"
        },
        {
            "bufferView" : 2,
            "componentType" : 5126,
            "count" : 182,
            "type" : "VEC2"
        },
        {
            "bufferView" : 3,
            "componentType" : 5123,
            "count" : 864,
            "type" : "SCALAR"
        },
        {
            "bufferView" : 4,
            "componentType" : 5126,
            "count" : 46,
            "max" : [
                0.8553810715675354,
                0.45159098505973816,
                1.218132734298706
            ],
            "min" : [
                -0.7921193242073059,
                -1.4420433044433594,
                0.15723520517349243
            ],
            "type" : "VEC3"
        },
        {
            "bufferView" : 5,
            "componentType" : 5126,
            "count" : 46,
            "type" : "VEC3"
        },
        {
            "bufferView" : 6,
            "componentType" : 5126,
            "count" : 46,
            "type" : "VEC2"
        },
        {
            "bufferView" : 7,
            "componentType" : 5123,
            "count" : 210,
            "type" : "SCALAR"
        },
        {
            "bufferView" : 8,
            "componentType" : 5126,
            "count" : 52,
            "max" : [
                0.8660256862640381,
                10.774421691894531,
                1.0000001192092896
            ],
            "min" : [
                -0.8660252094268799,
                -10.774421691894531,
                -0.9999997615814209
            ],
            "type" : "VEC3"
        },
        {
            "bufferView" : 9,
            "componentType" : 5126,
            "count" : 52,
            "type" : "VEC3"
        },
        {
            "bufferView" : 10,
            "componentType" : 5126,
            "count" : 52,
            "type" : "VEC2"
        },
        {
            "bufferView" : 11,
            "componentType" : 5123,
            "count" : 120,
            "type" : "SCALAR"
        },
        {
            "bufferView" : 12,
            "componentType" : 5126,
            "count" : 187,
            "max" : [
                1.1063205003738403,
                0.8591071963310242,
                1.9915766716003418
            ],
            "min" : [
                -1.103407382965088,
                -1.1228697299957275,
                -1.1091949939727783
            ],
            "type" : "VEC3"
        },
        {
            "bufferView" : 13,
            "componentType" : 5126,
            "count" : 187,
            "type" : "VEC3"
        },
        {
            "bufferView" : 14,
            "componentType" : 5126,
            "count" : 187,
            "type" : "VEC2"
        },
        {
            "bufferView" : 15,
            "componentType" : 5123,
            "count" : 813,
            "type" : "SCALAR"
        },
        {
            "bufferView" : 16,
            "componentType" : 5126,
            "count" : 14,
            "max" : [
                0.733260989189148,
                -0.07461223006248474,
                1.15878427028656
            ],
            "min" : [
                -0.7303475737571716,
                -0.28131651878356934,
                0.7897685170173645
            ],
            "type" : "VEC3"
        },
        {
            "bufferView" : 17,
            "componentType" : 5126,
            "count" : 14,
            "type" : "VEC3"
        },
        {
            "bufferView" : 18,
            "componentType" : 5126,
            "count" : 14,
            "type" : "VEC2"
        },
        {
            "bufferView" : 19,
            "componentType" : 5123,
            "count" : 36,
            "type" : "SCALAR"
        }
    ],
    "bufferViews" : [
        {
            "buffer" : 0,
            "byteLength" : 2184,
            "byteOffset" : 0
        },
        {
            "buffer" : 0,
            "byteLength" : 2184,
            "byteOffset" : 2184
        },
        {
            "buffer" : 0,
            "byteLength" : 1456,
            "byteOffset" : 4368
        },
        {
            "buffer" : 0,
            "byteLength" : 1728,
            "byteOffset" : 5824
        },
        {
            "buffer" : 0,
            "byteLength" : 552,
            "byteOffset" : 7552
        },
        {
            "buffer" : 0,
            "byteLength" : 552,
            "byteOffset" : 8104
        },
        {
            "buffer" : 0,
            "byteLength" : 368,
            "byteOffset" : 8656
        },
        {
            "buffer" : 0,
            "byteLength" : 420,
            "byteOffset" : 9024
        },
        {
            "buffer" : 0,
            "byteLength" : 624,
            "byteOffset" : 9444
        },
        {
            "buffer" : 0,
            "byteLength" : 624,
            "byteOffset" : 10068
        },
        {
            "buffer" : 0,
            "byteLength" : 416,
            "byteOffset" : 10692
        },
        {
            "buffer" : 0,
            "byteLength" : 240,
            "byteOffset" : 11108
        },
        {
            "buffer" : 0,
            "byteLength" : 2244,
            "byteOffset" : 11348
        },
        {
            "buffer" : 0,
            "byteLength" : 2244,
            "byteOffset" : 13592
        },
        {
            "buffer" : 0,
            "byteLength" : 1496,
            "byteOffset" : 15836
        },
        {
            "buffer" : 0,
            "byteLength" : 1626,
            "byteOffset" : 17332
        },
        {
            "buffer" : 0,
            "byteLength" : 168,
            "byteOffset" : 18960
        },
        {
            "buffer" : 0,
            "byteLength" : 168,
            "byteOffset" : 19128
        },
        {
            "buffer" : 0,
            "byteLength" : 112,
            "byteOffset" : 19296
        },
        {
            "buffer" : 0,
            "byteLength" : 72,
            "byteOffset" : 19408
        }
    ],
    "buffers" : [
        {
            "byteLength" : 19480,
            "uri" : "head.bin"
        }
    ]
}
