{
    "asset" : {
        "generator" : "Khronos glTF Blender I/O v1.2.75",
        "version" : "2.0"
    },
    "scene" : 0,
    "scenes" : [
        {
            "name" : "Scene",
            "nodes" : [
                0,
                1,
                2,
                3,
                4,
                5
            ]
        }
    ],
    "nodes" : [
        {
            "name" : "Light",
            "rotation" : [
                0.16907575726509094,
                0.7558803558349609,
                -0.27217137813568115,
                0.570947527885437
            ],
            "translation" : [
                4.076245307922363,
                5.903861999511719,
                -1.0054539442062378
            ]
        },
        {
            "name" : "Camera",
            "rotation" : [
                0.483536034822464,
                0.33687159419059753,
                -0.20870360732078552,
                0.7804827094078064
            ],
            "translation" : [
                7.358891487121582,
                4.958309173583984,
                6.925790786743164
            ]
        },
        {
            "mesh" : 0,
            "name" : "arms",
            "rotation" : [
                0,
                1,
                0,
                -4.534324034466408e-05
            ],
            "scale" : [
                0.30000001192092896,
                1.2000000476837158,
                0.30000001192092896
            ],
            "translation" : [
                1.0142176151275635,
                -0.5041795372962952,
                0
            ]
        },
        {
            "mesh" : 1,
            "name" : "\u7acb\u65b9\u4f53",
            "rotation" : [
                0,
                0,
                0.14681780338287354,
                0.9891635775566101
            ],
            "scale" : [
                0.30000001192092896,
                0.029999999329447746,
                0.10000000149011612
            ],
            "translation" : [
                -2.968156337738037,
                -0.7172891497612,
                0
            ]
        },
        {
            "mesh" : 2,
            "name" : "\u7acb\u65b9\u4f53.001",
            "rotation" : [
                -0.8373940587043762,
                -0.13303323090076447,
                0.08318167924880981,
                0.5235973000526428
            ],
            "scale" : [
                0.30000001192092896,
                0.029999999329447746,
                0.10000000149011612
            ],
            "translation" : [
                -2.846632480621338,
                -1.1262305974960327,
                -0.22090086340904236
            ]
        },
        {
            "mesh" : 3,
            "name" : "\u7acb\u65b9\u4f53.002",
            "rotation" : [
                0.8373405933380127,
                0.13337087631225586,
                0.08339270204305649,
                0.5235633254051208
            ],
            "scale" : [
                0.30000001192092896,
                0.029999999329447746,
                0.10000000149011612
            ],
            "translation" : [
                -2.846632480621338,
                -1.1262305974960327,
                0.25753021240234375
            ]
        }
    ],
    "materials" : [
        {
            "doubleSided" : true,
            "emissiveFactor" : [
                0,
                0,
                0
            ],
            "name" : "metalblack",
            "pbrMetallicRoughness" : {
                "baseColorTexture" : {
                    "index" : 0,
                    "texCoord" : 0
                },
                "metallicFactor" : 0.5,
                "roughnessFactor" : 0.30000001192092896
            }
        },
        {
            "doubleSided" : true,
            "emissiveFactor" : [
                0,
                0,
                0
            ],
            "name" : "plastic",
            "pbrMetallicRoughness" : {
                "baseColorTexture" : {
                    "index" : 1,
                    "texCoord" : 0
                },
                "metallicFactor" : 0.5,
                "roughnessFactor" : 0.25
            }
        }
    ],
    "meshes" : [
        {
            "name" : "\u5186\u67f1.009",
            "primitives" : [
                {
                    "attributes" : {
                        "POSITION" : 0,
                        "NORMAL" : 1,
                        "TEXCOORD_0" : 2
                    },
                    "indices" : 3,
                    "material" : 0
                },
                {
                    "attributes" : {
                        "POSITION" : 4,
                        "NORMAL" : 5,
                        "TEXCOORD_0" : 6
                    },
                    "indices" : 7,
                    "material" : 1
                }
            ]
        },
        {
            "name" : "\u7acb\u65b9\u4f53.001",
            "primitives" : [
                {
                    "attributes" : {
                        "POSITION" : 8,
                        "NORMAL" : 9,
                        "TEXCOORD_0" : 10
                    },
                    "indices" : 11,
                    "material" : 1
                }
            ]
        },
        {
            "name" : "\u7acb\u65b9\u4f53.004",
            "primitives" : [
                {
                    "attributes" : {
                        "POSITION" : 12,
                        "NORMAL" : 13,
                        "TEXCOORD_0" : 14
                    },
                    "indices" : 11,
                    "material" : 1
                }
            ]
        },
        {
            "name" : "\u7acb\u65b9\u4f53.006",
            "primitives" : [
                {
                    "attributes" : {
                        "POSITION" : 15,
                        "NORMAL" : 16,
                        "TEXCOORD_0" : 17
                    },
                    "indices" : 11,
                    "material" : 1
                }
            ]
        }
    ],
    "textures" : [
        {
            "source" : 0
        },
        {
            "source" : 1
        }
    ],
    "images" : [
        {
            "mimeType" : "image/jpeg",
            "name" : "metal",
            "uri" : "metal.jpg"
        },
        {
            "mimeType" : "image/jpeg",
            "name" : "fabric",
            "uri" : "fabric.jpg"
        }
    ],
    "accessors" : [
        {
            "bufferView" : 0,
            "componentType" : 5126,
            "count" : 126,
            "max" : [
                10.957891464233398,
                0.5612174868583679,
                0.9999999403953552
            ],
            "min" : [
                3.3295202255249023,
                -0.3977336287498474,
                -0.9999999403953552
            ],
            "type" : "VEC3"
        },
        {
            "bufferView" : 1,
            "componentType" : 5126,
            "count" : 126,
            "type" : "VEC3"
        },
        {
            "bufferView" : 2,
            "componentType" : 5126,
            "count" : 126,
            "type" : "VEC2"
        },
        {
            "bufferView" : 3,
            "componentType" : 5123,
            "count" : 192,
            "type" : "SCALAR"
        },
        {
            "bufferView" : 4,
            "componentType" : 5126,
            "count" : 54,
            "max" : [
                11.1878662109375,
                0.2975471317768097,
                0.9999999403953552
            ],
            "min" : [
                7.094694137573242,
                -0.40387672185897827,
                -0.9999999403953552
            ],
            "type" : "VEC3"
        },
        {
            "bufferView" : 5,
            "componentType" : 5126,
            "count" : 54,
            "type" : "VEC3"
        },
        {
            "bufferView" : 6,
            "componentType" : 5126,
            "count" : 54,
            "type" : "VEC2"
        },
        {
            "bufferView" : 7,
            "componentType" : 5123,
            "count" : 84,
            "type" : "SCALAR"
        },
        {
            "bufferView" : 8,
            "componentType" : 5126,
            "count" : 56,
            "max" : [
                2.400123119354248,
                -0.4472982883453369,
                1
            ],
            "min" : [
                0.30406248569488525,
                -6.3307905197143555,
                -1
            ],
            "type" : "VEC3"
        },
        {
            "bufferView" : 9,
            "componentType" : 5126,
            "count" : 56,
            "type" : "VEC3"
        },
        {
            "bufferView" : 10,
            "componentType" : 5126,
            "count" : 56,
            "type" : "VEC2"
        },
        {
            "bufferView" : 11,
            "componentType" : 5123,
            "count" : 84,
            "type" : "SCALAR"
        },
        {
            "bufferView" : 12,
            "componentType" : 5126,
            "count" : 56,
            "max" : [
                2.400123119354248,
                -0.4472982883453369,
                1
            ],
            "min" : [
                0.30406248569488525,
                -6.3307905197143555,
                -1
            ],
            "type" : "VEC3"
        },
        {
            "bufferView" : 13,
            "componentType" : 5126,
            "count" : 56,
            "type" : "VEC3"
        },
        {
            "bufferView" : 14,
            "componentType" : 5126,
            "count" : 56,
            "type" : "VEC2"
        },
        {
            "bufferView" : 15,
            "componentType" : 5126,
            "count" : 56,
            "max" : [
                2.400123119354248,
                -0.4472982883453369,
                1
            ],
            "min" : [
                0.30406248569488525,
                -6.3307905197143555,
                -1
            ],
            "type" : "VEC3"
        },
        {
            "bufferView" : 16,
            "componentType" : 5126,
            "count" : 56,
            "type" : "VEC3"
        },
        {
            "bufferView" : 17,
            "componentType" : 5126,
            "count" : 56,
            "type" : "VEC2"
        }
    ],
    "bufferViews" : [
        {
            "buffer" : 0,
            "byteLength" : 1512,
            "byteOffset" : 0
        },
        {
            "buffer" : 0,
            "byteLength" : 1512,
            "byteOffset" : 1512
        },
        {
            "buffer" : 0,
            "byteLength" : 1008,
            "byteOffset" : 3024
        },
        {
            "buffer" : 0,
            "byteLength" : 384,
            "byteOffset" : 4032
        },
        {
            "buffer" : 0,
            "byteLength" : 648,
            "byteOffset" : 4416
        },
        {
            "buffer" : 0,
            "byteLength" : 648,
            "byteOffset" : 5064
        },
        {
            "buffer" : 0,
            "byteLength" : 432,
            "byteOffset" : 5712
        },
        {
            "buffer" : 0,
            "byteLength" : 168,
            "byteOffset" : 6144
        },
        {
            "buffer" : 0,
            "byteLength" : 672,
            "byteOffset" : 6312
        },
        {
            "buffer" : 0,
            "byteLength" : 672,
            "byteOffset" : 6984
        },
        {
            "buffer" : 0,
            "byteLength" : 448,
            "byteOffset" : 7656
        },
        {
            "buffer" : 0,
            "byteLength" : 168,
            "byteOffset" : 8104
        },
        {
            "buffer" : 0,
            "byteLength" : 672,
            "byteOffset" : 8272
        },
        {
            "buffer" : 0,
            "byteLength" : 672,
            "byteOffset" : 8944
        },
        {
            "buffer" : 0,
            "byteLength" : 448,
            "byteOffset" : 9616
        },
        {
            "buffer" : 0,
            "byteLength" : 672,
            "byteOffset" : 10064
        },
        {
            "buffer" : 0,
            "byteLength" : 672,
            "byteOffset" : 10736
        },
        {
            "buffer" : 0,
            "byteLength" : 448,
            "byteOffset" : 11408
        }
    ],
    "buffers" : [
        {
            "byteLength" : 11856,
            "uri" : "larm.bin"
        }
    ]
}
