{
    "asset" : {
        "generator" : "Khronos glTF Blender I/O v1.2.75",
        "version" : "2.0"
    },
    "scene" : 0,
    "scenes" : [
        {
            "name" : "Scene",
            "nodes" : [
                0,
                1,
                2
            ]
        }
    ],
    "nodes" : [
        {
            "name" : "Light",
            "rotation" : [
                -0.07181087136268616,
                0.9386593699455261,
                -0.3122612237930298,
                -0.1274939328432083
            ],
            "scale" : [
                1.2539349794387817,
                1.092382550239563,
                1.1395740509033203
            ],
            "translation" : [
                0.2634624242782593,
                5.246843338012695,
                -4.027880668640137
            ]
        },
        {
            "name" : "Camera",
            "rotation" : [
                0.567847490310669,
                0.24241085350513458,
                -0.17284896969795227,
                0.7674043774604797
            ],
            "translation" : [
                17.922222137451172,
                10.349167823791504,
                25.73981475830078
            ]
        },
        {
            "mesh" : 0,
            "name" : "body",
            "rotation" : [
                0,
                1,
                0,
                -4.371138828673793e-08
            ],
            "scale" : [
                1.4360119104385376,
                1.2999141216278076,
                1.4360119104385376
            ],
            "translation" : [
                0,
                0.5303107500076294,
                0
            ]
        }
    ],
    "materials" : [
        {
            "doubleSided" : true,
            "emissiveFactor" : [
                0,
                0,
                0
            ],
            "name" : "black",
            "pbrMetallicRoughness" : {
                "baseColorFactor" : [
                    0,
                    0,
                    0,
                    1
                ],
                "metallicFactor" : 0,
                "roughnessFactor" : 0.4000000059604645
            }
        }
    ],
    "meshes" : [
        {
            "name" : "\u5186\u67f1.003",
            "primitives" : [
                {
                    "attributes" : {
                        "POSITION" : 0,
                        "NORMAL" : 1,
                        "TEXCOORD_0" : 2
                    },
                    "indices" : 3,
                    "material" : 0
                }
            ]
        }
    ],
    "accessors" : [
        {
            "bufferView" : 0,
            "componentType" : 5126,
            "count" : 64,
            "max" : [
                1.0828741788864136,
                -1,
                1.082874059677124
            ],
            "min" : [
                -1.082874059677124,
                -1.8594728708267212,
                -1.0828741788864136
            ],
            "type" : "VEC3"
        },
        {
            "bufferView" : 1,
            "componentType" : 5126,
            "count" : 64,
            "type" : "VEC3"
        },
        {
            "bufferView" : 2,
            "componentType" : 5126,
            "count" : 64,
            "type" : "VEC2"
        },
        {
            "bufferView" : 3,
            "componentType" : 5123,
            "count" : 276,
            "type" : "SCALAR"
        }
    ],
    "bufferViews" : [
        {
            "buffer" : 0,
            "byteLength" : 768,
            "byteOffset" : 0
        },
        {
            "buffer" : 0,
            "byteLength" : 768,
            "byteOffset" : 768
        },
        {
            "buffer" : 0,
            "byteLength" : 512,
            "byteOffset" : 1536
        },
        {
            "buffer" : 0,
            "byteLength" : 552,
            "byteOffset" : 2048
        }
    ],
    "buffers" : [
        {
            "byteLength" : 2600,
            "uri" : "lower.bin"
        }
    ]
}
