{
    "asset" : {
        "generator" : "Khronos glTF Blender I/O v1.2.75",
        "version" : "2.0"
    },
    "scene" : 0,
    "scenes" : [
        {
            "name" : "Scene",
            "nodes" : [
                0,
                1,
                2,
                3,
                4,
                5
            ]
        }
    ],
    "nodes" : [
        {
            "name" : "Light",
            "rotation" : [
                0.16907575726509094,
                0.7558803558349609,
                -0.27217137813568115,
                0.570947527885437
            ],
            "translation" : [
                4.076245307922363,
                5.903861999511719,
                -1.0054539442062378
            ]
        },
        {
            "name" : "Camera",
            "rotation" : [
                0.483536034822464,
                0.33687159419059753,
                -0.20870360732078552,
                0.7804827094078064
            ],
            "translation" : [
                7.358891487121582,
                4.958309173583984,
                6.925790786743164
            ]
        },
        {
            "mesh" : 0,
            "name" : "head",
            "rotation" : [
                0,
                1,
                0,
                -4.534324034466408e-05
            ],
            "scale" : [
                0.8290736079216003,
                0.8290736079216003,
                0.8290736079216003
            ]
        },
        {
            "mesh" : 1,
            "name" : "eye",
            "rotation" : [
                -3.206251494702883e-05,
                0.7071067690849304,
                -0.7071067690849304,
                -3.2062511309050024e-05
            ],
            "scale" : [
                0.30000001192092896,
                0.30000001192092896,
                0.30000001192092896
            ],
            "translation" : [
                0,
                0,
                -0.7291458249092102
            ]
        },
        {
            "mesh" : 2,
            "name" : "ear",
            "rotation" : [
                -0.7071068286895752,
                0.7071067690849304,
                3.2062511309050024e-05,
                -3.206251494702883e-05
            ],
            "scale" : [
                0.20000000298023224,
                0.10000000149011612,
                0.20000000298023224
            ]
        },
        {
            "mesh" : 3,
            "name" : "antenna",
            "rotation" : [
                1.4347288924909662e-05,
                0.9486207962036133,
                0.3164151608943939,
                -4.3013544200221077e-05
            ],
            "scale" : [
                0.05000000074505806,
                0.5,
                0.05000000074505806
            ],
            "translation" : [
                0.8546116948127747,
                0.47043681144714355,
                0.3470648527145386
            ]
        }
    ],
    "materials" : [
        {
            "doubleSided" : true,
            "emissiveFactor" : [
                0,
                0,
                0
            ],
            "name" : "metalblack",
            "pbrMetallicRoughness" : {
                "baseColorTexture" : {
                    "index" : 0,
                    "texCoord" : 0
                },
                "metallicFactor" : 0.5,
                "roughnessFactor" : 0.30000001192092896
            }
        },
        {
            "doubleSided" : true,
            "emissiveFactor" : [
                0,
                0,
                0
            ],
            "name" : "plastic",
            "pbrMetallicRoughness" : {
                "baseColorTexture" : {
                    "index" : 1,
                    "texCoord" : 0
                },
                "metallicFactor" : 0.5,
                "roughnessFactor" : 0.25
            }
        },
        {
            "doubleSided" : true,
            "emissiveFactor" : [
                0,
                0,
                0
            ],
            "name" : "eye",
            "pbrMetallicRoughness" : {
                "baseColorFactor" : [
                    0.8000000715255737,
                    0,
                    0.02281181514263153,
                    1
                ],
                "metallicFactor" : 0,
                "roughnessFactor" : 0.5
            }
        }
    ],
    "meshes" : [
        {
            "name" : "\u7403.001",
            "primitives" : [
                {
                    "attributes" : {
                        "POSITION" : 0,
                        "NORMAL" : 1,
                        "TEXCOORD_0" : 2
                    },
                    "indices" : 3,
                    "material" : 0
                },
                {
                    "attributes" : {
                        "POSITION" : 4,
                        "NORMAL" : 5,
                        "TEXCOORD_0" : 6
                    },
                    "indices" : 7,
                    "material" : 1
                }
            ]
        },
        {
            "name" : "\u5186\u67f1",
            "primitives" : [
                {
                    "attributes" : {
                        "POSITION" : 8,
                        "NORMAL" : 9,
                        "TEXCOORD_0" : 10
                    },
                    "indices" : 11,
                    "material" : 0
                },
                {
                    "attributes" : {
                        "POSITION" : 12,
                        "NORMAL" : 13,
                        "TEXCOORD_0" : 14
                    },
                    "indices" : 15,
                    "material" : 2
                }
            ]
        },
        {
            "name" : "\u5186\u67f1.002",
            "primitives" : [
                {
                    "attributes" : {
                        "POSITION" : 16,
                        "NORMAL" : 17,
                        "TEXCOORD_0" : 18
                    },
                    "indices" : 19,
                    "material" : 0
                },
                {
                    "attributes" : {
                        "POSITION" : 20,
                        "NORMAL" : 21,
                        "TEXCOORD_0" : 22
                    },
                    "indices" : 23,
                    "material" : 2
                }
            ]
        },
        {
            "name" : "\u5186\u67f1.003",
            "primitives" : [
                {
                    "attributes" : {
                        "POSITION" : 24,
                        "NORMAL" : 25,
                        "TEXCOORD_0" : 26
                    },
                    "indices" : 27,
                    "material" : 0
                },
                {
                    "attributes" : {
                        "POSITION" : 28,
                        "NORMAL" : 29,
                        "TEXCOORD_0" : 30
                    },
                    "indices" : 15,
                    "material" : 2
                },
                {
                    "attributes" : {
                        "POSITION" : 31,
                        "NORMAL" : 32,
                        "TEXCOORD_0" : 33
                    },
                    "indices" : 34,
                    "material" : 1
                }
            ]
        }
    ],
    "textures" : [
        {
            "source" : 0
        },
        {
            "source" : 1
        }
    ],
    "images" : [
        {
            "mimeType" : "image/jpeg",
            "name" : "metal",
            "uri" : "metal.jpg"
        },
        {
            "mimeType" : "image/jpeg",
            "name" : "fabric",
            "uri" : "fabric.jpg"
        }
    ],
    "accessors" : [
        {
            "bufferView" : 0,
            "componentType" : 5126,
            "count" : 183,
            "max" : [
                0.9898210763931274,
                0.4999999701976776,
                0.9999993443489075
            ],
            "min" : [
                -0.9898212552070618,
                -1,
                -1.000000238418579
            ],
            "type" : "VEC3"
        },
        {
            "bufferView" : 1,
            "componentType" : 5126,
            "count" : 183,
            "type" : "VEC3"
        },
        {
            "bufferView" : 2,
            "componentType" : 5126,
            "count" : 183,
            "type" : "VEC2"
        },
        {
            "bufferView" : 3,
            "componentType" : 5123,
            "count" : 726,
            "type" : "SCALAR"
        },
        {
            "bufferView" : 4,
            "componentType" : 5126,
            "count" : 183,
            "max" : [
                0.857210099697113,
                1,
                0.8660246133804321
            ],
            "min" : [
                -0.8572101593017578,
                -0.8660252690315247,
                -0.8660253286361694
            ],
            "type" : "VEC3"
        },
        {
            "bufferView" : 5,
            "componentType" : 5126,
            "count" : 183,
            "type" : "VEC3"
        },
        {
            "bufferView" : 6,
            "componentType" : 5126,
            "count" : 183,
            "type" : "VEC2"
        },
        {
            "bufferView" : 7,
            "componentType" : 5123,
            "count" : 726,
            "type" : "SCALAR"
        },
        {
            "bufferView" : 8,
            "componentType" : 5126,
            "count" : 98,
            "max" : [
                1,
                1,
                1
            ],
            "min" : [
                -1,
                -1,
                -1
            ],
            "type" : "VEC3"
        },
        {
            "bufferView" : 9,
            "componentType" : 5126,
            "count" : 98,
            "type" : "VEC3"
        },
        {
            "bufferView" : 10,
            "componentType" : 5126,
            "count" : 98,
            "type" : "VEC2"
        },
        {
            "bufferView" : 11,
            "componentType" : 5123,
            "count" : 282,
            "type" : "SCALAR"
        },
        {
            "bufferView" : 12,
            "componentType" : 5126,
            "count" : 32,
            "max" : [
                1,
                1,
                1
            ],
            "min" : [
                -1,
                1,
                -1
            ],
            "type" : "VEC3"
        },
        {
            "bufferView" : 13,
            "componentType" : 5126,
            "count" : 32,
            "type" : "VEC3"
        },
        {
            "bufferView" : 14,
            "componentType" : 5126,
            "count" : 32,
            "type" : "VEC2"
        },
        {
            "bufferView" : 15,
            "componentType" : 5123,
            "count" : 90,
            "type" : "SCALAR"
        },
        {
            "bufferView" : 16,
            "componentType" : 5126,
            "count" : 196,
            "max" : [
                1,
                9.207716941833496,
                1
            ],
            "min" : [
                -1,
                -9.207716941833496,
                -1
            ],
            "type" : "VEC3"
        },
        {
            "bufferView" : 17,
            "componentType" : 5126,
            "count" : 196,
            "type" : "VEC3"
        },
        {
            "bufferView" : 18,
            "componentType" : 5126,
            "count" : 196,
            "type" : "VEC2"
        },
        {
            "bufferView" : 19,
            "componentType" : 5123,
            "count" : 564,
            "type" : "SCALAR"
        },
        {
            "bufferView" : 20,
            "componentType" : 5126,
            "count" : 64,
            "max" : [
                1,
                9.207716941833496,
                1
            ],
            "min" : [
                -1,
                -9.207716941833496,
                -1
            ],
            "type" : "VEC3"
        },
        {
            "bufferView" : 21,
            "componentType" : 5126,
            "count" : 64,
            "type" : "VEC3"
        },
        {
            "bufferView" : 22,
            "componentType" : 5126,
            "count" : 64,
            "type" : "VEC2"
        },
        {
            "bufferView" : 23,
            "componentType" : 5123,
            "count" : 180,
            "type" : "SCALAR"
        },
        {
            "bufferView" : 24,
            "componentType" : 5126,
            "count" : 288,
            "max" : [
                1,
                1,
                1
            ],
            "min" : [
                -1,
                -1,
                -1
            ],
            "type" : "VEC3"
        },
        {
            "bufferView" : 25,
            "componentType" : 5126,
            "count" : 288,
            "type" : "VEC3"
        },
        {
            "bufferView" : 26,
            "componentType" : 5126,
            "count" : 288,
            "type" : "VEC2"
        },
        {
            "bufferView" : 27,
            "componentType" : 5123,
            "count" : 474,
            "type" : "SCALAR"
        },
        {
            "bufferView" : 28,
            "componentType" : 5126,
            "count" : 32,
            "max" : [
                1,
                1,
                1
            ],
            "min" : [
                -1,
                1,
                -1
            ],
            "type" : "VEC3"
        },
        {
            "bufferView" : 29,
            "componentType" : 5126,
            "count" : 32,
            "type" : "VEC3"
        },
        {
            "bufferView" : 30,
            "componentType" : 5126,
            "count" : 32,
            "type" : "VEC2"
        },
        {
            "bufferView" : 31,
            "componentType" : 5126,
            "count" : 128,
            "max" : [
                1,
                0.0823495090007782,
                1
            ],
            "min" : [
                -1,
                0,
                -1
            ],
            "type" : "VEC3"
        },
        {
            "bufferView" : 32,
            "componentType" : 5126,
            "count" : 128,
            "type" : "VEC3"
        },
        {
            "bufferView" : 33,
            "componentType" : 5126,
            "count" : 128,
            "type" : "VEC2"
        },
        {
            "bufferView" : 34,
            "componentType" : 5123,
            "count" : 192,
            "type" : "SCALAR"
        }
    ],
    "bufferViews" : [
        {
            "buffer" : 0,
            "byteLength" : 2196,
            "byteOffset" : 0
        },
        {
            "buffer" : 0,
            "byteLength" : 2196,
            "byteOffset" : 2196
        },
        {
            "buffer" : 0,
            "byteLength" : 1464,
            "byteOffset" : 4392
        },
        {
            "buffer" : 0,
            "byteLength" : 1452,
            "byteOffset" : 5856
        },
        {
            "buffer" : 0,
            "byteLength" : 2196,
            "byteOffset" : 7308
        },
        {
            "buffer" : 0,
            "byteLength" : 2196,
            "byteOffset" : 9504
        },
        {
            "buffer" : 0,
            "byteLength" : 1464,
            "byteOffset" : 11700
        },
        {
            "buffer" : 0,
            "byteLength" : 1452,
            "byteOffset" : 13164
        },
        {
            "buffer" : 0,
            "byteLength" : 1176,
            "byteOffset" : 14616
        },
        {
            "buffer" : 0,
            "byteLength" : 1176,
            "byteOffset" : 15792
        },
        {
            "buffer" : 0,
            "byteLength" : 784,
            "byteOffset" : 16968
        },
        {
            "buffer" : 0,
            "byteLength" : 564,
            "byteOffset" : 17752
        },
        {
            "buffer" : 0,
            "byteLength" : 384,
            "byteOffset" : 18316
        },
        {
            "buffer" : 0,
            "byteLength" : 384,
            "byteOffset" : 18700
        },
        {
            "buffer" : 0,
            "byteLength" : 256,
            "byteOffset" : 19084
        },
        {
            "buffer" : 0,
            "byteLength" : 180,
            "byteOffset" : 19340
        },
        {
            "buffer" : 0,
            "byteLength" : 2352,
            "byteOffset" : 19520
        },
        {
            "buffer" : 0,
            "byteLength" : 2352,
            "byteOffset" : 21872
        },
        {
            "buffer" : 0,
            "byteLength" : 1568,
            "byteOffset" : 24224
        },
        {
            "buffer" : 0,
            "byteLength" : 1128,
            "byteOffset" : 25792
        },
        {
            "buffer" : 0,
            "byteLength" : 768,
            "byteOffset" : 26920
        },
        {
            "buffer" : 0,
            "byteLength" : 768,
            "byteOffset" : 27688
        },
        {
            "buffer" : 0,
            "byteLength" : 512,
            "byteOffset" : 28456
        },
        {
            "buffer" : 0,
            "byteLength" : 360,
            "byteOffset" : 28968
        },
        {
            "buffer" : 0,
            "byteLength" : 3456,
            "byteOffset" : 29328
        },
        {
            "buffer" : 0,
            "byteLength" : 3456,
            "byteOffset" : 32784
        },
        {
            "buffer" : 0,
            "byteLength" : 2304,
            "byteOffset" : 36240
        },
        {
            "buffer" : 0,
            "byteLength" : 948,
            "byteOffset" : 38544
        },
        {
            "buffer" : 0,
            "byteLength" : 384,
            "byteOffset" : 39492
        },
        {
            "buffer" : 0,
            "byteLength" : 384,
            "byteOffset" : 39876
        },
        {
            "buffer" : 0,
            "byteLength" : 256,
            "byteOffset" : 40260
        },
        {
            "buffer" : 0,
            "byteLength" : 1536,
            "byteOffset" : 40516
        },
        {
            "buffer" : 0,
            "byteLength" : 1536,
            "byteOffset" : 42052
        },
        {
            "buffer" : 0,
            "byteLength" : 1024,
            "byteOffset" : 43588
        },
        {
            "buffer" : 0,
            "byteLength" : 384,
            "byteOffset" : 44612
        }
    ],
    "buffers" : [
        {
            "byteLength" : 44996,
            "uri" : "playerhead.bin"
        }
    ]
}
