{
    "asset" : {
        "generator" : "Khronos glTF Blender I/O v1.2.75",
        "version" : "2.0"
    },
    "scene" : 0,
    "scenes" : [
        {
            "name" : "Scene",
            "nodes" : [
                0,
                1,
                2,
                3
            ]
        }
    ],
    "nodes" : [
        {
            "name" : "Light",
            "rotation" : [
                0.16907575726509094,
                0.7558803558349609,
                -0.27217137813568115,
                0.570947527885437
            ],
            "translation" : [
                3.0517327785491943,
                5.3921661376953125,
                -1.0054539442062378
            ]
        },
        {
            "name" : "Camera",
            "rotation" : [
                0.483536034822464,
                0.33687159419059753,
                -0.20870360732078552,
                0.7804827094078064
            ],
            "translation" : [
                7.358891487121582,
                4.958309173583984,
                6.925790786743164
            ]
        },
        {
            "mesh" : 0,
            "name" : "arms",
            "rotation" : [
                0,
                1,
                0,
                -4.534324034466408e-05
            ],
            "scale" : [
                0.30000001192092896,
                1.2000000476837158,
                0.30000001192092896
            ],
            "translation" : [
                -1.0245124101638794,
                -0.5116960406303406,
                0
            ]
        },
        {
            "mesh" : 1,
            "name" : "\u5186\u67f1",
            "rotation" : [
                0,
                0,
                -0.8204956650733948,
                0.5716527700424194
            ],
            "scale" : [
                0.07810819149017334,
                0.07810819149017334,
                0.07810819149017334
            ],
            "translation" : [
                1.1866542100906372,
                -0.3684609830379486,
                0
            ]
        }
    ],
    "materials" : [
        {
            "doubleSided" : true,
            "emissiveFactor" : [
                0,
                0,
                0
            ],
            "name" : "metalblack",
            "pbrMetallicRoughness" : {
                "baseColorTexture" : {
                    "index" : 0,
                    "texCoord" : 0
                },
                "metallicFactor" : 0.5,
                "roughnessFactor" : 0.30000001192092896
            }
        },
        {
            "doubleSided" : true,
            "emissiveFactor" : [
                0,
                0,
                0
            ],
            "name" : "plastic",
            "pbrMetallicRoughness" : {
                "baseColorTexture" : {
                    "index" : 1,
                    "texCoord" : 0
                },
                "metallicFactor" : 0.5,
                "roughnessFactor" : 0.25
            }
        },
        {
            "doubleSided" : true,
            "emissiveFactor" : [
                0,
                0,
                0
            ],
            "name" : "silver",
            "pbrMetallicRoughness" : {
                "baseColorFactor" : [
                    0.16794872283935547,
                    0.16794872283935547,
                    0.16794872283935547,
                    1
                ],
                "metallicFactor" : 0.5,
                "roughnessFactor" : 0.23333331942558289
            }
        }
    ],
    "meshes" : [
        {
            "name" : "\u5186\u67f1.009",
            "primitives" : [
                {
                    "attributes" : {
                        "POSITION" : 0,
                        "NORMAL" : 1,
                        "TEXCOORD_0" : 2
                    },
                    "indices" : 3,
                    "material" : 0
                },
                {
                    "attributes" : {
                        "POSITION" : 4,
                        "NORMAL" : 5,
                        "TEXCOORD_0" : 6
                    },
                    "indices" : 7,
                    "material" : 1
                }
            ]
        },
        {
            "name" : "\u5186\u67f1.001",
            "primitives" : [
                {
                    "attributes" : {
                        "POSITION" : 8,
                        "NORMAL" : 9,
                        "TEXCOORD_0" : 10
                    },
                    "indices" : 11,
                    "material" : 2
                }
            ]
        }
    ],
    "textures" : [
        {
            "source" : 0
        },
        {
            "source" : 1
        }
    ],
    "images" : [
        {
            "mimeType" : "image/jpeg",
            "name" : "metal",
            "uri" : "metal.jpg"
        },
        {
            "mimeType" : "image/jpeg",
            "name" : "fabric.jpg",
            "uri" : "fabric_jpg.jpg"
        }
    ],
    "accessors" : [
        {
            "bufferView" : 0,
            "componentType" : 5126,
            "count" : 67,
            "max" : [
                -3.3295202255249023,
                0.5612174868583679,
                0.9999999403953552
            ],
            "min" : [
                -9.208174705505371,
                -0.13337208330631256,
                -0.9999999403953552
            ],
            "type" : "VEC3"
        },
        {
            "bufferView" : 1,
            "componentType" : 5126,
            "count" : 67,
            "type" : "VEC3"
        },
        {
            "bufferView" : 2,
            "componentType" : 5126,
            "count" : 67,
            "type" : "VEC2"
        },
        {
            "bufferView" : 3,
            "componentType" : 5123,
            "count" : 192,
            "type" : "SCALAR"
        },
        {
            "bufferView" : 4,
            "componentType" : 5126,
            "count" : 44,
            "max" : [
                -7.094694137573242,
                0.2975471317768097,
                0.9999999403953552
            ],
            "min" : [
                -9.310166358947754,
                -0.13609649240970612,
                -0.9999999403953552
            ],
            "type" : "VEC3"
        },
        {
            "bufferView" : 5,
            "componentType" : 5126,
            "count" : 44,
            "type" : "VEC3"
        },
        {
            "bufferView" : 6,
            "componentType" : 5126,
            "count" : 44,
            "type" : "VEC2"
        },
        {
            "bufferView" : 7,
            "componentType" : 5123,
            "count" : 84,
            "type" : "SCALAR"
        },
        {
            "bufferView" : 8,
            "componentType" : 5126,
            "count" : 230,
            "max" : [
                1.1916495561599731,
                23.300315856933594,
                1.0454518795013428
            ],
            "min" : [
                -1.1041617393493652,
                -1.0113039016723633,
                -1.0244896411895752
            ],
            "type" : "VEC3"
        },
        {
            "bufferView" : 9,
            "componentType" : 5126,
            "count" : 230,
            "type" : "VEC3"
        },
        {
            "bufferView" : 10,
            "componentType" : 5126,
            "count" : 230,
            "type" : "VEC2"
        },
        {
            "bufferView" : 11,
            "componentType" : 5123,
            "count" : 1002,
            "type" : "SCALAR"
        }
    ],
    "bufferViews" : [
        {
            "buffer" : 0,
            "byteLength" : 804,
            "byteOffset" : 0
        },
        {
            "buffer" : 0,
            "byteLength" : 804,
            "byteOffset" : 804
        },
        {
            "buffer" : 0,
            "byteLength" : 536,
            "byteOffset" : 1608
        },
        {
            "buffer" : 0,
            "byteLength" : 384,
            "byteOffset" : 2144
        },
        {
            "buffer" : 0,
            "byteLength" : 528,
            "byteOffset" : 2528
        },
        {
            "buffer" : 0,
            "byteLength" : 528,
            "byteOffset" : 3056
        },
        {
            "buffer" : 0,
            "byteLength" : 352,
            "byteOffset" : 3584
        },
        {
            "buffer" : 0,
            "byteLength" : 168,
            "byteOffset" : 3936
        },
        {
            "buffer" : 0,
            "byteLength" : 2760,
            "byteOffset" : 4104
        },
        {
            "buffer" : 0,
            "byteLength" : 2760,
            "byteOffset" : 6864
        },
        {
            "buffer" : 0,
            "byteLength" : 1840,
            "byteOffset" : 9624
        },
        {
            "buffer" : 0,
            "byteLength" : 2004,
            "byteOffset" : 11464
        }
    ],
    "buffers" : [
        {
            "byteLength" : 13468,
            "uri" : "rarm.bin"
        }
    ]
}
