{
    "asset" : {
        "generator" : "Khronos glTF Blender I/O v1.2.75",
        "version" : "2.0"
    },
    "scene" : 0,
    "scenes" : [
        {
            "name" : "Scene",
            "nodes" : [
                0,
                1,
                2
            ]
        }
    ],
    "nodes" : [
        {
            "name" : "Light",
            "rotation" : [
                -0.07181087136268616,
                0.9386593699455261,
                -0.3122612237930298,
                -0.1274939328432083
            ],
            "scale" : [
                1.2539349794387817,
                1.092382550239563,
                1.1395740509033203
            ],
            "translation" : [
                0.2634624242782593,
                5.246843338012695,
                -4.027880668640137
            ]
        },
        {
            "name" : "Camera",
            "rotation" : [
                0.567847490310669,
                0.24241085350513458,
                -0.17284896969795227,
                0.7674043774604797
            ],
            "translation" : [
                17.922222137451172,
                10.349167823791504,
                25.73981475830078
            ]
        },
        {
            "mesh" : 0,
            "name" : "legs",
            "rotation" : [
                0,
                0.7071067690849304,
                0,
                0.7071067690849304
            ],
            "scale" : [
                0.6313807368278503,
                0.40310999751091003,
                0.8999189734458923
            ]
        }
    ],
    "materials" : [
        {
            "doubleSided" : true,
            "emissiveFactor" : [
                0,
                0,
                0
            ],
            "name" : "black",
            "pbrMetallicRoughness" : {
                "baseColorFactor" : [
                    0,
                    0,
                    0,
                    1
                ],
                "metallicFactor" : 0,
                "roughnessFactor" : 0.4000000059604645
            }
        }
    ],
    "meshes" : [
        {
            "name" : "\u7acb\u65b9\u4f53",
            "primitives" : [
                {
                    "attributes" : {
                        "POSITION" : 0,
                        "NORMAL" : 1,
                        "TEXCOORD_0" : 2
                    },
                    "indices" : 3,
                    "material" : 0
                }
            ]
        }
    ],
    "accessors" : [
        {
            "bufferView" : 0,
            "componentType" : 5126,
            "count" : 73,
            "max" : [
                -1.1103280782699585,
                -5.857975006103516,
                2.377044200897217
            ],
            "min" : [
                -3.9909660816192627,
                -8.008919715881348,
                -0.9908323287963867
            ],
            "type" : "VEC3"
        },
        {
            "bufferView" : 1,
            "componentType" : 5126,
            "count" : 73,
            "type" : "VEC3"
        },
        {
            "bufferView" : 2,
            "componentType" : 5126,
            "count" : 73,
            "type" : "VEC2"
        },
        {
            "bufferView" : 3,
            "componentType" : 5123,
            "count" : 117,
            "type" : "SCALAR"
        }
    ],
    "bufferViews" : [
        {
            "buffer" : 0,
            "byteLength" : 876,
            "byteOffset" : 0
        },
        {
            "buffer" : 0,
            "byteLength" : 876,
            "byteOffset" : 876
        },
        {
            "buffer" : 0,
            "byteLength" : 584,
            "byteOffset" : 1752
        },
        {
            "buffer" : 0,
            "byteLength" : 234,
            "byteOffset" : 2336
        }
    ],
    "buffers" : [
        {
            "byteLength" : 2572,
            "uri" : "rightleg.bin"
        }
    ]
}
