{
    "asset" : {
        "generator" : "Khronos glTF Blender I/O v1.2.75",
        "version" : "2.0"
    },
    "scene" : 0,
    "scenes" : [
        {
            "name" : "Scene",
            "nodes" : [
                0,
                1,
                2,
                3
            ]
        }
    ],
    "nodes" : [
        {
            "name" : "Light",
            "rotation" : [
                0.16907575726509094,
                0.7558803558349609,
                -0.27217137813568115,
                0.570947527885437
            ],
            "translation" : [
                4.076245307922363,
                5.903861999511719,
                -1.0054539442062378
            ]
        },
        {
            "name" : "Camera",
            "rotation" : [
                0.483536034822464,
                0.33687159419059753,
                -0.20870360732078552,
                0.7804827094078064
            ],
            "translation" : [
                7.358891487121582,
                4.958309173583984,
                6.925790786743164
            ]
        },
        {
            "mesh" : 0,
            "name" : "body",
            "rotation" : [
                0,
                1,
                0,
                -4.534324034466408e-05
            ],
            "scale" : [
                1.2000000476837158,
                1,
                1.2000000476837158
            ]
        },
        {
            "mesh" : 1,
            "name" : "armor",
            "rotation" : [
                0,
                1,
                0,
                -4.534324034466408e-05
            ],
            "translation" : [
                0,
                1.0832854509353638,
                -0.35711246728897095
            ]
        }
    ],
    "materials" : [
        {
            "doubleSided" : true,
            "emissiveFactor" : [
                0,
                0,
                0
            ],
            "name" : "plastic",
            "pbrMetallicRoughness" : {
                "baseColorTexture" : {
                    "index" : 0,
                    "texCoord" : 0
                },
                "metallicFactor" : 0.5,
                "roughnessFactor" : 0.25
            }
        },
        {
            "doubleSided" : true,
            "emissiveFactor" : [
                0,
                0,
                0
            ],
            "name" : "metalblack",
            "pbrMetallicRoughness" : {
                "baseColorTexture" : {
                    "index" : 1,
                    "texCoord" : 0
                },
                "metallicFactor" : 0.5,
                "roughnessFactor" : 0.30000001192092896
            }
        }
    ],
    "meshes" : [
        {
            "name" : "\u7403",
            "primitives" : [
                {
                    "attributes" : {
                        "POSITION" : 0,
                        "NORMAL" : 1,
                        "TEXCOORD_0" : 2
                    },
                    "indices" : 3,
                    "material" : 0
                }
            ]
        },
        {
            "name" : "\u7acb\u65b9\u4f53.002",
            "primitives" : [
                {
                    "attributes" : {
                        "POSITION" : 4,
                        "NORMAL" : 5,
                        "TEXCOORD_0" : 6
                    },
                    "indices" : 7,
                    "material" : 1
                }
            ]
        }
    ],
    "textures" : [
        {
            "source" : 0
        },
        {
            "source" : 1
        }
    ],
    "images" : [
        {
            "mimeType" : "image/jpeg",
            "name" : "fabric.jpg",
            "uri" : "fabric_jpg.jpg"
        },
        {
            "mimeType" : "image/jpeg",
            "name" : "metal",
            "uri" : "metal.jpg"
        }
    ],
    "accessors" : [
        {
            "bufferView" : 0,
            "componentType" : 5126,
            "count" : 297,
            "max" : [
                0.9871944189071655,
                2.302584171295166,
                0.999999463558197
            ],
            "min" : [
                -0.9924479126930237,
                -0.9996859431266785,
                -1.0000001192092896
            ],
            "type" : "VEC3"
        },
        {
            "bufferView" : 1,
            "componentType" : 5126,
            "count" : 297,
            "type" : "VEC3"
        },
        {
            "bufferView" : 2,
            "componentType" : 5126,
            "count" : 297,
            "type" : "VEC2"
        },
        {
            "bufferView" : 3,
            "componentType" : 5123,
            "count" : 1452,
            "type" : "SCALAR"
        },
        {
            "bufferView" : 4,
            "componentType" : 5126,
            "count" : 187,
            "max" : [
                1.318243384361267,
                1.0667824745178223,
                1
            ],
            "min" : [
                -1.3455281257629395,
                -1,
                -1.5462064743041992
            ],
            "type" : "VEC3"
        },
        {
            "bufferView" : 5,
            "componentType" : 5126,
            "count" : 187,
            "type" : "VEC3"
        },
        {
            "bufferView" : 6,
            "componentType" : 5126,
            "count" : 187,
            "type" : "VEC2"
        },
        {
            "bufferView" : 7,
            "componentType" : 5123,
            "count" : 864,
            "type" : "SCALAR"
        }
    ],
    "bufferViews" : [
        {
            "buffer" : 0,
            "byteLength" : 3564,
            "byteOffset" : 0
        },
        {
            "buffer" : 0,
            "byteLength" : 3564,
            "byteOffset" : 3564
        },
        {
            "buffer" : 0,
            "byteLength" : 2376,
            "byteOffset" : 7128
        },
        {
            "buffer" : 0,
            "byteLength" : 2904,
            "byteOffset" : 9504
        },
        {
            "buffer" : 0,
            "byteLength" : 2244,
            "byteOffset" : 12408
        },
        {
            "buffer" : 0,
            "byteLength" : 2244,
            "byteOffset" : 14652
        },
        {
            "buffer" : 0,
            "byteLength" : 1496,
            "byteOffset" : 16896
        },
        {
            "buffer" : 0,
            "byteLength" : 1728,
            "byteOffset" : 18392
        }
    ],
    "buffers" : [
        {
            "byteLength" : 20120,
            "uri" : "torso.bin"
        }
    ]
}
