{
    "asset" : {
        "generator" : "Khronos glTF Blender I/O v1.2.75",
        "version" : "2.0"
    },
    "scene" : 0,
    "scenes" : [
        {
            "name" : "Scene",
            "nodes" : [
                0,
                1,
                2
            ]
        }
    ],
    "nodes" : [
        {
            "name" : "Light",
            "rotation" : [
                -0.07181087136268616,
                0.9386593699455261,
                -0.3122612237930298,
                -0.1274939328432083
            ],
            "scale" : [
                1.2539349794387817,
                1.092382550239563,
                1.1395740509033203
            ],
            "translation" : [
                0.2634624242782593,
                5.246843338012695,
                -4.027880668640137
            ]
        },
        {
            "name" : "Camera",
            "rotation" : [
                0.567847490310669,
                0.24241085350513458,
                -0.17284896969795227,
                0.7674043774604797
            ],
            "translation" : [
                17.922222137451172,
                10.349167823791504,
                25.73981475830078
            ]
        },
        {
            "mesh" : 0,
            "name" : "body",
            "rotation" : [
                0,
                0.7071067690849304,
                0,
                0.7071067690849304
            ],
            "scale" : [
                1.4360119104385376,
                1.2999141216278076,
                1.4360119104385376
            ],
            "translation" : [
                0,
                0.5303107500076294,
                0
            ]
        }
    ],
    "materials" : [
        {
            "doubleSided" : true,
            "emissiveFactor" : [
                0,
                0,
                0
            ],
            "name" : "metal",
            "pbrMetallicRoughness" : {
                "metallicFactor" : 0.800000011920929,
                "roughnessFactor" : 0.20000000298023224
            }
        },
        {
            "doubleSided" : true,
            "emissiveFactor" : [
                0,
                0,
                0
            ],
            "name" : "\u30de\u30c6\u30ea\u30a2\u30eb.001",
            "pbrMetallicRoughness" : {
                "baseColorTexture" : {
                    "index" : 0,
                    "texCoord" : 0
                },
                "metallicFactor" : 0,
                "roughnessFactor" : 0.5
            }
        }
    ],
    "meshes" : [
        {
            "name" : "\u5186\u67f1.003",
            "primitives" : [
                {
                    "attributes" : {
                        "POSITION" : 0,
                        "NORMAL" : 1,
                        "TEXCOORD_0" : 2
                    },
                    "indices" : 3,
                    "material" : 0
                },
                {
                    "attributes" : {
                        "POSITION" : 4,
                        "NORMAL" : 5,
                        "TEXCOORD_0" : 6
                    },
                    "indices" : 7,
                    "material" : 1
                }
            ]
        }
    ],
    "textures" : [
        {
            "source" : 0
        }
    ],
    "images" : [
        {
            "mimeType" : "image/jpeg",
            "name" : "uni",
            "uri" : "uni.jpg"
        }
    ],
    "accessors" : [
        {
            "bufferView" : 0,
            "componentType" : 5126,
            "count" : 12,
            "max" : [
                1.0828741788864136,
                -1,
                1.082874059677124
            ],
            "min" : [
                -1.082874059677124,
                -1,
                -1.0828741788864136
            ],
            "type" : "VEC3"
        },
        {
            "bufferView" : 1,
            "componentType" : 5126,
            "count" : 12,
            "type" : "VEC3"
        },
        {
            "bufferView" : 2,
            "componentType" : 5126,
            "count" : 12,
            "type" : "VEC2"
        },
        {
            "bufferView" : 3,
            "componentType" : 5123,
            "count" : 30,
            "type" : "SCALAR"
        },
        {
            "bufferView" : 4,
            "componentType" : 5126,
            "count" : 77,
            "max" : [
                1.0828741788864136,
                1,
                1.082874059677124
            ],
            "min" : [
                -1.082874059677124,
                -1,
                -1.0828741788864136
            ],
            "type" : "VEC3"
        },
        {
            "bufferView" : 5,
            "componentType" : 5126,
            "count" : 77,
            "type" : "VEC3"
        },
        {
            "bufferView" : 6,
            "componentType" : 5126,
            "count" : 77,
            "type" : "VEC2"
        },
        {
            "bufferView" : 7,
            "componentType" : 5123,
            "count" : 318,
            "type" : "SCALAR"
        }
    ],
    "bufferViews" : [
        {
            "buffer" : 0,
            "byteLength" : 144,
            "byteOffset" : 0
        },
        {
            "buffer" : 0,
            "byteLength" : 144,
            "byteOffset" : 144
        },
        {
            "buffer" : 0,
            "byteLength" : 96,
            "byteOffset" : 288
        },
        {
            "buffer" : 0,
            "byteLength" : 60,
            "byteOffset" : 384
        },
        {
            "buffer" : 0,
            "byteLength" : 924,
            "byteOffset" : 444
        },
        {
            "buffer" : 0,
            "byteLength" : 924,
            "byteOffset" : 1368
        },
        {
            "buffer" : 0,
            "byteLength" : 616,
            "byteOffset" : 2292
        },
        {
            "buffer" : 0,
            "byteLength" : 636,
            "byteOffset" : 2908
        }
    ],
    "buffers" : [
        {
            "byteLength" : 3544,
            "uri" : "upper.bin"
        }
    ]
}
